<?xml version="1.0" encoding="UTF-8" standalone="no"?>
<!-- Created with Inkscape (http://www.inkscape.org/) -->

<svg
   xmlns:dc="http://purl.org/dc/elements/1.1/"
   xmlns:cc="http://creativecommons.org/ns#"
   xmlns:rdf="http://www.w3.org/1999/02/22-rdf-syntax-ns#"
   xmlns:svg="http://www.w3.org/2000/svg"
   xmlns="http://www.w3.org/2000/svg"
   xmlns:sodipodi="http://sodipodi.sourceforge.net/DTD/sodipodi-0.dtd"
   xmlns:inkscape="http://www.inkscape.org/namespaces/inkscape"
   id="svg2"
   version="1.1"
   inkscape:version="0.91 r13725"
   width="5776.5425"
   height="1045.7957"
   viewBox="0 0 5776.5425 1045.7957"
   sodipodi:docname="logo.svg"
   inkscape:export-filename="/home/phrb/.julia/v0.4/StochasticSearch/img/stochasticsearchlogo_big.png"
   inkscape:export-xdpi="300"
   inkscape:export-ydpi="300">
  <metadata
     id="metadata8">
    <rdf:RDF>
      <cc:Work
         rdf:about="">
        <dc:format>image/svg+xml</dc:format>
        <dc:type
           rdf:resource="http://purl.org/dc/dcmitype/StillImage" />
        <dc:title></dc:title>
      </cc:Work>
    </rdf:RDF>
  </metadata>
  <defs
     id="defs6" />
  <sodipodi:namedview
     pagecolor="#ffffff"
     bordercolor="#666666"
     borderopacity="1"
     objecttolerance="10"
     gridtolerance="10"
     guidetolerance="10"
     inkscape:pageopacity="0"
     inkscape:pageshadow="2"
     inkscape:window-width="1920"
     inkscape:window-height="1058"
     id="namedview4"
     showgrid="false"
     fit-margin-top="50"
     fit-margin-left="50"
     fit-margin-right="50"
     fit-margin-bottom="50"
     inkscape:zoom="0.16835876"
     inkscape:cx="2660.4864"
     inkscape:cy="-443.22991"
     inkscape:window-x="0"
     inkscape:window-y="22"
     inkscape:window-maximized="0"
     inkscape:current-layer="svg2" />
  <g
     id="g4294"
     transform="matrix(1.96459,0,0,1.96459,1829.2581,-70.329892)">
    <path
       inkscape:connector-curvature="0"
       id="path3453"
       d="m -783.85817,542.51064 c -0.165,0.0666 -4.15502,-2.08464 -8.86671,-4.78056 l -8.56671,-4.90168 0.0248,-39.9435 0.0248,-39.9435 -4.65814,-2.80996 c -2.56196,-1.54548 -5.19812,-3.11368 -5.85812,-3.48489 -0.66,-0.3712 -3.495,-2.00938 -6.3,-3.64038 -2.805,-1.63101 -6.18,-3.57752 -7.5,-4.32559 -1.32,-0.74807 -4.23332,-2.43501 -6.47404,-3.74878 l -4.07404,-2.38867 0.0355,-26.63734 0.0355,-26.63735 -5.26149,-3.06276 c -2.89372,-1.68451 -6.20639,-3.59189 -7.36139,-4.23862 -1.155,-0.64673 -4.8,-2.74549 -8.1,-4.66391 -3.3,-1.91842 -7.57844,-4.38985 -9.50764,-5.49207 -1.9292,-1.10222 -3.7517,-2.00403 -4.05,-2.00403 l -0.54236,0 0,45.88617 0,45.88616 1.35,0.86518 c 0.7425,0.47586 2.72741,1.62958 4.4109,2.56384 1.68349,0.93425 8.90485,5.07365 16.04746,9.19865 l 12.98658,7.5 0.002,7.09506 0.002,7.09507 -3.15,-1.74905 c -1.7325,-0.96198 -4.77,-2.69441 -6.75,-3.84984 -1.98,-1.15544 -9,-5.21256 -15.6,-9.01583 -6.6,-3.80328 -14.025,-8.11081 -16.5,-9.57231 l -4.5,-2.65726 0,-57.16616 0,-57.16617 3,-1.65933 c 1.65,-0.91264 4.89,-2.74409 7.2,-4.06989 2.31,-1.32579 10.275,-5.92189 17.7,-10.21353 7.425,-4.29165 17.25217,-10.00074 21.83816,-12.68688 4.58598,-2.68614 8.42872,-4.88388 8.53943,-4.88388 0.1107,0 1.96579,-1.08 4.12241,-2.4 2.15662,-1.32 4.02324,-2.4 4.14804,-2.4 0.1248,0 4.86195,-2.71679 10.52701,-6.0373 5.66507,-3.32051 11.70071,-6.83969 13.41253,-7.8204 1.71183,-0.98071 4.26995,-2.37261 5.68472,-3.0931 l 2.57231,-1.31 1.28041,0.79963 c 0.70423,0.43979 2.51669,1.48638 4.0277,2.32574 1.511,0.83937 3.75441,2.15822 4.98535,2.93077 1.23095,0.77256 2.38381,1.40465 2.56193,1.40465 0.17811,0 1.33098,0.6321 2.56192,1.40466 1.23094,0.77255 3.45308,2.09267 4.93808,2.93358 1.485,0.84091 5.13,2.94625 8.1,4.67852 2.97,1.73228 6.615,3.83007 8.1,4.66176 1.485,0.83171 3.70713,2.14428 4.93807,2.91683 1.23095,0.77256 2.33852,1.40466 2.46127,1.40466 0.12276,0 4.65062,2.5937 10.06193,5.76378 5.4113,3.17008 11.99873,6.99426 14.63873,8.49817 2.64,1.50391 6.02407,3.43271 7.52015,4.28621 1.49609,0.85351 3.24884,1.86909 3.895,2.25684 0.64617,0.38775 1.0421,0.81975 0.87985,0.96002 -0.16225,0.14026 -2.90317,1.79926 -6.09094,3.68666 l -5.79593,3.43163 -2.44214,-1.54166 c -1.34292,-0.84791 -2.58761,-1.54165 -2.76573,-1.54165 -0.17812,0 -1.33098,-0.63342 -2.56192,-1.40759 -1.23094,-0.77417 -5.88308,-3.51583 -10.33808,-6.09257 -4.455,-2.57674 -13.365,-7.70617 -19.8,-11.39874 -6.435,-3.69257 -15.21,-8.74408 -19.5,-11.22559 -4.29,-2.4815 -8.745,-5.06652 -9.9,-5.74449 l -2.1,-1.23265 -10.1374,5.95081 c -5.57557,3.27295 -10.19433,5.95082 -10.26391,5.95082 -0.0696,0 -2.52774,1.38884 -5.46259,3.08631 -2.93486,1.69747 -7.6311,4.42736 -10.4361,6.06642 -2.805,1.63905 -6.315,3.66812 -7.8,4.50903 -1.485,0.84091 -3.70713,2.16103 -4.93808,2.93358 -1.23094,0.77256 -2.34998,1.40466 -2.48676,1.40466 -0.13678,0 -4.66465,2.5912 -10.06192,5.75822 -5.39729,3.16702 -11.29824,6.57344 -13.11324,7.56982 -1.815,0.99637 -3.64905,2.13887 -4.07567,2.53888 l -0.77567,0.72728 4.54183,2.8029 c 2.49801,1.54159 4.70788,2.8029 4.91083,2.8029 0.20295,0 2.07906,1.08 4.16914,2.4 2.09007,1.32 3.93699,2.4 4.10427,2.4 0.16727,0 2.06865,1.08 4.22527,2.4 2.15662,1.32 4.04614,2.4 4.19892,2.4 0.15278,0 1.7745,0.95743 3.60381,2.12763 l 3.32602,2.12763 4.63563,-2.64111 c 2.54959,-1.45262 6.39062,-3.66567 8.53562,-4.9179 2.145,-1.25224 4.98,-2.87908 6.3,-3.61521 1.32,-0.73613 5.775,-3.2963 9.9,-5.68926 4.125,-2.39297 9.6987,-5.64315 12.38599,-7.22264 l 4.886,-2.87179 1.114,0.76636 c 0.61271,0.42149 4.75901,2.86941 9.21401,5.43983 4.455,2.57041 12.42,7.15752 17.7,10.19357 5.28,3.03605 12.2416,7.04596 15.47022,8.91091 3.22862,1.86494 6.53612,3.82712 7.35,4.3604 l 1.47978,0.96959 0,30.16553 0,30.16552 -6.45,3.79694 c -3.5475,2.08832 -6.99,4.09179 -7.65,4.45217 -0.66,0.36037 -2.54993,1.44871 -4.19986,2.41852 -1.64991,0.96982 -3.96365,2.30331 -5.14164,2.96331 -1.17798,0.66 -4.21554,2.40122 -6.75014,3.86937 l -4.60836,2.66939 0,19.44481 0,19.44482 0.79051,-0.30335 c 0.43478,-0.16684 3.5649,-1.95073 6.95582,-3.9642 3.39092,-2.01346 6.28055,-3.66084 6.42141,-3.66084 0.14086,0 1.26324,-0.6321 2.49418,-1.40466 1.23094,-0.77255 3.45308,-2.08762 4.93808,-2.92238 1.485,-0.83475 5.13,-2.93759 8.1,-4.67296 2.97,-1.73538 6.615,-3.83821 8.1,-4.67296 1.485,-0.83476 3.70714,-2.14983 4.93808,-2.92239 1.23094,-0.77256 2.37368,-1.40465 2.53943,-1.40465 0.16575,0 2.06587,-1.08 4.22249,-2.4 2.15662,-1.32 4.01561,-2.4 4.13108,-2.4 0.11547,0 3.36751,-1.89 7.22675,-4.2 3.85924,-2.31 7.27002,-4.2 7.57949,-4.2 l 0.56268,0 0.004,-40.35 0.004,-40.35 5.24604,-3 c 2.88532,-1.65 5.58354,-3.0873 5.99604,-3.194 l 0.75,-0.19399 -10e-4,46.994 -10e-4,46.99399 -6.44866,3.69191 c -3.54752,2.03055 -9.82442,5.64763 -13.94942,8.03796 -4.125,2.39032 -11.82,6.83034 -17.1,9.86669 -5.28,3.03635 -12.3,7.08585 -15.6,8.99888 -3.3,1.91303 -11.265,6.50721 -17.7,10.2093 -6.435,3.70209 -13.995,8.09021 -16.8,9.75138 l -5.1,3.02031 -0.15505,-33.65317 -0.15504,-33.65317 0.45504,-0.44584 c 0.25028,-0.2452 7.61005,-4.54522 16.35505,-9.55558 8.745,-5.01037 16.3725,-9.52487 16.95,-10.03221 l 1.05,-0.92245 0,-22.61732 0,-22.61732 -3.03987,-1.88969 c -1.67192,-1.03933 -3.16229,-1.88968 -3.31192,-1.88968 -0.14963,0 -1.27919,-0.6321 -2.51013,-1.40466 -1.23094,-0.77255 -3.50757,-2.10994 -5.05915,-2.97196 -1.5516,-0.86203 -6.99974,-4.00367 -12.10699,-6.98144 -5.10725,-2.97777 -10.25848,-5.96039 -11.44718,-6.62804 -1.18869,-0.66765 -2.57573,-1.2139 -3.08231,-1.2139 l -0.92105,0 -5.2107,3.0868 c -2.86589,1.69774 -6.2907,3.69603 -7.6107,4.44065 -1.32,0.74461 -6.72565,3.87805 -12.01256,6.96319 -5.2869,3.08515 -10.62248,6.14491 -11.85683,6.79948 l -2.24428,1.19012 0.15683,23.35934 0.15684,23.35934 7.5,4.33519 c 4.125,2.38436 11.685,6.75825 16.8,9.71975 l 9.3,5.38456 0.15418,40.13768 0.15417,40.13768 2.72003,1.64296 2.72002,1.64295 2.41241,-1.23071 c 1.32682,-0.6769 3.86796,-2.16183 5.64697,-3.29985 1.77902,-1.13802 3.3438,-2.06913 3.4773,-2.06913 0.1335,0 2.50897,-1.30483 5.27882,-2.89963 2.76986,-1.5948 9.30161,-5.38741 14.51503,-8.42803 5.2134,-3.04063 10.7484,-6.2337 12.3,-7.09572 1.55158,-0.86202 3.82821,-2.19941 5.05915,-2.97197 1.23094,-0.77256 2.36165,-1.40465 2.51268,-1.40465 0.15103,0 3.43217,-1.89 7.29141,-4.2 3.85924,-2.31 7.11128,-4.2 7.22675,-4.2 0.11547,0 1.97446,-1.08 4.13108,-2.4 2.15662,-1.32 4.05674,-2.4 4.22249,-2.4 0.16575,0 1.30849,-0.6321 2.53943,-1.40466 1.23094,-0.77255 3.45308,-2.08762 4.93808,-2.92238 1.485,-0.83475 5.13,-2.93732 8.1,-4.67237 2.97,-1.73505 6.21,-3.61836 7.2,-4.18515 0.99,-0.56678 4.2975,-2.43932 7.35,-4.1612 l 5.55,-3.13068 0,-59.72105 0,-59.72104 -2.25,1.3429 c -1.2375,0.73861 -4.815,2.83171 -7.95,4.65134 -3.135,1.81963 -6.51,3.76553 -7.5,4.32421 -0.99,0.55868 -3.42,1.92801 -5.4,3.04295 -1.98,1.11493 -5.22,3.00899 -7.2,4.20901 l -3.6,2.18186 -0.12927,40.12221 -0.12927,40.1222 -11.57073,6.65589 c -6.3639,3.66073 -13.97197,8.05315 -16.90683,9.76092 -2.93485,1.70777 -5.40723,3.10504 -5.49418,3.10504 -0.0869,0 -2.88636,1.62 -6.22092,3.6 -3.33456,1.98 -6.19468,3.6 -6.35582,3.6 -0.16114,0 -0.29231,-3.1725 -0.29148,-7.05 l 10e-4,-7.05 9.14851,-5.25882 c 5.03196,-2.89234 12.79379,-7.369 17.24879,-9.94812 l 8.1,-4.68931 0.15462,-36.71894 0.15461,-36.71893 -1.05461,-0.39401 c -0.58004,-0.21672 -2.74688,-1.42404 -4.81519,-2.68295 -2.06831,-1.25891 -3.89617,-2.28892 -4.06192,-2.28892 -0.16575,0 -1.30849,-0.6321 -2.53943,-1.40466 -1.23094,-0.77255 -3.45308,-2.08226 -4.93808,-2.91045 -1.485,-0.82818 -8.91,-5.09639 -16.5,-9.48489 -7.59,-4.38851 -15.015,-8.65671 -16.5,-9.4849 -1.485,-0.82819 -3.70714,-2.1379 -4.93808,-2.91045 -1.23094,-0.77256 -2.3838,-1.40465 -2.56192,-1.40465 -0.17812,0 -1.3868,-0.67101 -2.68595,-1.49114 l -2.36211,-1.49113 -1.07597,0.3973 c -0.59178,0.21851 -2.02097,0.98162 -3.17597,1.69578 -1.155,0.71417 -3.315,1.98009 -4.8,2.81315 -1.485,0.83306 -7.02,4.02294 -12.3,7.08862 -5.28,3.06568 -11.86624,6.88199 -14.6361,8.48069 -2.76985,1.5987 -5.13771,2.90673 -5.26192,2.90673 -0.1242,0 -1.28878,0.67101 -2.58793,1.49113 l -2.36211,1.49114 -1.07597,-0.40221 c -0.59178,-0.22122 -2.76823,-1.43223 -4.83653,-2.69114 -2.06832,-1.25891 -3.99276,-2.28892 -4.27654,-2.28892 -0.28378,0 -0.82235,-0.36918 -1.19683,-0.8204 l -0.68086,-0.82039 0.75739,-0.62792 c 0.41677,-0.34536 2.3776,-1.55333 4.3576,-2.68438 1.98,-1.13106 9,-5.17414 15.6,-8.98463 6.6,-3.81049 15.375,-8.87968 19.5,-11.26485 4.125,-2.38516 9.72271,-5.64761 12.43934,-7.24988 l 4.93934,-2.91322 3.76066,1.99589 c 2.06837,1.09774 7.00066,3.87952 10.96066,6.18174 3.96,2.30221 8.415,4.86497 9.9,5.69502 1.485,0.83005 8.91,5.10997 16.5,9.51094 7.59,4.40097 17.03708,9.84233 20.99351,12.09192 3.95642,2.24958 7.46642,4.08825 7.8,4.08592 0.33357,-0.002 4.76921,-2.43233 9.85699,-5.4 5.08777,-2.96767 9.34564,-5.39576 9.46192,-5.39576 0.11629,0 1.21856,-0.6321 2.4495,-1.40466 1.23094,-0.77255 3.45308,-2.08789 4.93808,-2.92296 1.485,-0.83508 3.57579,-2.02548 4.64621,-2.64535 1.07041,-0.61987 1.94791,-1.27271 1.95,-1.45077 0.002,-0.17806 -1.81871,-1.32954 -4.04621,-2.55884 -2.2275,-1.22931 -6.615,-3.74444 -9.75,-5.58919 -3.135,-1.84474 -7.05,-4.09918 -8.7,-5.00986 -1.65,-0.91068 -3.945,-2.20275 -5.1,-2.87127 -1.155,-0.66852 -4.53,-2.63358 -7.5,-4.36681 -2.97,-1.73322 -12.42,-7.19901 -21,-12.14619 -8.58,-4.94718 -19.11,-11.01154 -23.4,-13.47636 -4.29,-2.46481 -8.88,-5.09875 -10.2,-5.8532 -1.32,-0.75444 -4.83,-2.78432 -7.8,-4.51083 l -5.4,-3.13913 -1.5,0.87851 c -0.825,0.48318 -4.2,2.44733 -7.5,4.36477 -3.3,1.91745 -6.945,4.01623 -8.1,4.66395 -1.155,0.64772 -4.33579,2.49629 -7.06841,4.10793 -2.73262,1.61164 -5.07374,2.93025 -5.20247,2.93025 -0.12874,0 -2.41072,1.35 -5.07107,3 -2.66035,1.65 -4.93799,3 -5.06142,3 -0.12344,0 -2.55818,1.35 -5.41053,3 -2.85236,1.65001 -7.5486,4.37989 -10.4361,6.06642 -2.8875,1.68653 -6.33,3.68369 -7.65,4.43813 -1.32,0.75445 -6.045,3.46433 -10.5,6.02195 -4.455,2.55763 -9.585,5.50597 -11.4,6.55186 -1.815,1.04589 -4.44213,2.62613 -5.83807,3.51164 -1.39595,0.8855 -2.6441,1.61001 -2.77368,1.61001 -0.12957,0 -3.71244,2.00777 -7.96192,4.46172 l -7.72633,4.46172 -0.15272,63.19647 -0.15272,63.19647 3.15272,1.8777 c 1.734,1.03274 4.50272,2.61768 6.15272,3.5221 1.65,0.90442 3.27,1.84214 3.6,2.08382 0.33,0.24168 1.815,1.11001 3.3,1.92963 1.485,0.81962 7.02,3.99679 12.3,7.06039 5.28,3.06359 10.545,6.10616 11.7,6.76126 1.155,0.6551 4.8,2.74702 8.1,4.64872 3.3,1.90169 7.08,4.06104 8.4,4.79856 1.32,0.73751 4.63119,2.65683 7.35819,4.26515 l 4.95819,2.92422 -0.15819,-19.60451 -0.15819,-19.6045 -9,-5.32554 c -4.95,-2.92904 -9.405,-5.4942 -9.9,-5.70035 -0.495,-0.20615 -2.17438,-1.15308 -3.73196,-2.10429 -1.55757,-0.95121 -3.98757,-2.38258 -5.4,-3.18082 -1.41242,-0.79824 -3.44554,-1.91009 -4.51804,-2.47076 l -1.95,-1.01941 0,-33.78888 c 0,-18.58388 0.11979,-33.78887 0.26619,-33.78887 0.1464,0 2.8464,1.51061 6,3.35692 l 5.73381,3.35691 0,26.57425 0,26.57424 4.05,2.41077 c 2.2275,1.32593 7.425,4.35415 11.55,6.72939 4.125,2.37523 10.1325,5.8339 13.35,7.68593 l 5.85,3.36733 0,33.77212 0,33.77214 -0.46649,0 c -0.25658,0 -0.99908,-0.37158 -1.65,-0.82574 -0.65093,-0.45415 -4.82851,-2.92751 -9.28351,-5.49635 -4.455,-2.56884 -9.90645,-5.70286 -12.11433,-6.96448 -2.20788,-1.26162 -4.90788,-2.80355 -6,-3.42648 -1.09212,-0.62295 -4.01067,-2.33691 -6.48567,-3.8088 -2.475,-1.47189 -5.715,-3.35493 -7.2,-4.18452 -1.485,-0.82959 -5.4,-3.07822 -8.7,-4.99696 -3.3,-1.91873 -7.485,-4.34757 -9.3,-5.39741 -1.815,-1.04984 -8.7,-5.02226 -15.3,-8.82758 -6.6,-3.80532 -13.01361,-7.52049 -14.25246,-8.25594 l -2.25246,-1.33718 0.15246,-70.54747 0.15246,-70.54748 6.6,-3.84459 c 3.63,-2.11452 7.815,-4.52611 9.3,-5.3591 1.485,-0.83298 3.915,-2.20898 5.4,-3.05778 1.485,-0.8488 6.02332,-3.51852 10.08515,-5.93271 4.06183,-2.41419 7.46558,-4.38943 7.5639,-4.38943 0.0983,0 2.445,-1.30484 5.21485,-2.89964 2.76986,-1.5948 9.30162,-5.38741 14.51503,-8.42803 5.2134,-3.04063 10.7484,-6.23369 12.3,-7.09572 1.55159,-0.86202 3.82821,-2.19941 5.05915,-2.97196 1.23094,-0.77256 2.36165,-1.40466 2.51268,-1.40466 0.15103,0 3.43217,-1.89 7.29141,-4.2 3.85924,-2.31 7.11128,-4.2 7.22675,-4.2 0.11547,0 1.97446,-1.08 4.13108,-2.4 2.15662,-1.32 4.04662,-2.4 4.2,-2.4 0.15338,0 2.04338,-1.08 4.2,-2.4 2.15662,-1.32 4.05717,-2.4 4.22343,-2.4 0.16627,0 1.37651,-0.71088 2.68943,-1.57973 l 2.38714,-1.57973 0.004,-66.67027 0.004,-66.67027 1.6462,-0.94818 c 0.90542,-0.5215 4.34621,-2.51728 7.64621,-4.43507 3.3,-1.91779 7.08,-4.09575 8.4,-4.83992 1.32,-0.74416 4.83,-2.7707 7.8,-4.50341 2.97,-1.73271 7.02,-4.08886 9,-5.23589 1.98,-1.14702 4.815,-2.75854 6.3,-3.58115 1.485,-0.82261 3.915,-2.2339 5.4,-3.1362 1.48459,-0.9023 6.61459,-3.88138 11.39959,-6.620175 4.785,-2.7388 9.93864,-5.74921 11.45253,-6.68981 1.51389,-0.9406 2.89518,-1.71019 3.06953,-1.71019 0.17435,0 5.38443,-2.97 11.57794,-6.6 6.19351,-3.63 11.36509,-6.6 11.49239,-6.6 0.1273,0 1.23859,-0.6357 2.46953,-1.41267 1.23094,-0.77697 7.09808,-4.18855 13.03808,-7.58128 5.94,-3.39273 10.95515,-6.2537 11.14478,-6.35771 0.18962,-0.104 2.56838,1.14758 5.28612,2.78128 2.71774,1.63371 5.04657,2.97038 5.17518,2.97038 0.1286,0 1.79985,0.94331 3.71387,2.09624 l 3.48005,2.09624 0.3,40.234315 0.3,40.23433 10.5,6.03318 c 5.775,3.31826 13.5375,7.79958 17.25,9.9585 l 6.75,3.92531 0,26.7745 0,26.7745 2.24018,1.18644 c 1.2321,0.65255 6.8346,3.85684 12.45,7.12067 5.6154,3.26382 11.42482,6.61094 12.90982,7.43805 1.485,0.82711 3.23258,1.86921 3.88351,2.31578 0.65092,0.44657 1.52842,0.81194 1.95,0.81194 l 0.76649,0 0,-46.2 0,-46.2 -0.51539,0 c -0.28347,0 -5.21097,-2.70583 -10.95,-6.01296 -5.73904,-3.30713 -11.10961,-6.41688 -11.93461,-6.91055 -0.825,-0.49367 -3.7275,-2.15876 -6.45,-3.7002 l -4.95,-2.80261 0,-7.13191 0,-7.1319 3.15,1.73255 c 1.7325,0.95291 10.305,5.87308 19.05,10.93372 8.745,5.06065 17.655,10.20858 19.8,11.43986 l 3.9,2.23869 0.15301,57.31934 0.153,57.31935 -3.01202,1.85331 c -1.65661,1.01932 -3.16878,1.85331 -3.36038,1.85331 -0.1916,0 -1.06505,0.50141 -1.94099,1.11423 -0.87594,0.61283 -2.94262,1.85876 -4.59262,2.76875 -1.65,0.90998 -6.24,3.54056 -10.2,5.84574 -3.96,2.30517 -8.7257,5.10924 -10.59044,6.23125 -1.86474,1.12202 -3.5576,2.04003 -3.76192,2.04003 -0.20432,0 -1.48005,0.69981 -2.83496,1.55513 -1.35491,0.85531 -5.92041,3.54918 -10.14558,5.98638 -4.22516,2.43719 -8.71373,5.0067 -9.9746,5.71 -1.26088,0.70332 -3.7775,2.16539 -5.5925,3.24906 -1.815,1.08366 -8.43,4.92326 -14.7,8.53244 -6.27,3.60918 -12.77106,7.32543 -14.44679,8.25833 l -3.0468,1.69618 -4.7532,-2.6983 c -2.61427,-1.48406 -9.34321,-5.34495 -14.95321,-8.57976 -5.61,-3.23482 -14.655,-8.4355 -20.1,-11.55707 -5.445,-3.12158 -10.17,-5.88175 -10.5,-6.1337 -0.33,-0.25196 -1.815,-1.13034 -3.3,-1.95195 -1.485,-0.82161 -6.26539,-3.54671 -10.6231,-6.05578 -4.35769,-2.50906 -8.94769,-5.18812 -10.2,-5.95346 -1.25229,-0.76533 -3.2894,-1.91776 -4.5269,-2.56095 -1.2375,-0.64318 -2.25,-1.33953 -2.25,-1.54743 0,-0.2079 2.21771,-1.699 4.92824,-3.31356 2.71054,-1.61455 5.40721,-3.12813 5.99261,-3.36349 l 1.06437,-0.42793 7.95739,4.5663 c 4.37657,2.51146 9.44239,5.42203 11.25739,6.46792 1.815,1.04589 4.44214,2.62612 5.83808,3.51163 1.39594,0.88551 2.64435,1.61001 2.77425,1.61001 0.12989,0 3.30776,1.78038 7.06192,3.95639 3.75416,2.17601 12.22575,7.06254 18.82575,10.85895 6.6,3.79641 12.84361,7.38693 13.87468,7.97894 l 1.87469,1.07638 6.82732,-4.03907 c 3.75503,-2.22148 10.47142,-6.1532 14.92532,-8.73714 4.4539,-2.58395 9.85299,-5.68596 11.99799,-6.89336 2.145,-1.2074 7.545,-4.30523 12,-6.88405 4.455,-2.57883 8.91,-5.14986 9.9,-5.71341 0.99,-0.56354 6.12,-3.53887 11.4,-6.61184 5.28,-3.07297 10.2052,-5.88074 10.94489,-6.2395 l 1.34488,-0.65229 -0.17474,-0.53956 c -0.0961,-0.29676 -1.91631,-1.53684 -4.04489,-2.75573 -2.12857,-1.21888 -7.24514,-4.17747 -11.37014,-6.57462 -4.125,-2.39716 -9.8551,-5.69262 -12.73356,-7.32324 l -5.23356,-2.96475 -3.32809,2.12895 c -1.83045,1.17093 -3.41323,2.12895 -3.51728,2.12895 -0.10406,0 -4.35131,2.38813 -9.43835,5.30695 -5.08704,2.91882 -13.81757,7.94194 -19.40118,11.16248 l -10.15202,5.85553 -1.84798,-0.94157 c -1.01639,-0.51786 -3.25315,-1.74673 -4.97058,-2.73081 -1.71744,-0.98409 -7.98296,-4.6385 -13.92339,-8.12091 -5.94043,-3.48242 -10.97358,-6.33167 -11.18477,-6.33167 -0.2112,0 -1.10068,-0.5014 -1.97662,-1.11423 -0.87594,-0.61282 -2.94262,-1.85944 -4.59262,-2.77027 -1.65,-0.91083 -5.49997,-3.12662 -8.55548,-4.92399 l -5.55548,-3.26795 0.15548,-30.33451 0.15548,-30.33451 3.9,-2.22122 c 2.145,-1.22168 7.545,-4.33538 12,-6.91934 4.455,-2.58395 10.45538,-6.05054 13.33418,-7.70351 l 5.23418,-3.00541 0.16582,-19.45312 c 0.0912,-10.69921 0.0733,-19.5454 -0.0398,-19.6582 -0.11312,-0.11279 -2.13812,0.95265 -4.5,2.36766 -2.36188,1.415 -6.18433,3.65996 -8.49433,4.9888 -2.31,1.32884 -7.575,4.39848 -11.7,6.82142 -4.125,2.42295 -8.04,4.70064 -8.7,5.06154 -0.66,0.3609 -3.36,1.89022 -6,3.3985 -2.64,1.50827 -8.85,5.09686 -13.8,7.97464 -4.95,2.87779 -10.215,5.91228 -11.7,6.74331 -1.485,0.83103 -3.0375,1.77791 -3.45,2.10415 l -0.75,0.59318 -0.0127,39.97653 -0.0127,39.97653 -5.58035,3.15 c -3.06918,1.7325 -5.76349,3.15 -5.98737,3.15 l -0.40697,0 0,-46.95567 0,-46.95567 1.05,-0.64831 c 0.5775,-0.35657 2.30843,-1.34774 3.84652,-2.20259 1.53808,-0.85484 6.39808,-3.63788 10.8,-6.18451 4.40191,-2.54664 10.16348,-5.88746 12.80348,-7.42404 2.64,-1.53658 5.34,-3.10253 6,-3.47989 0.66,-0.37735 4.44,-2.55414 8.4,-4.83729 3.96,-2.28315 10.82774,-6.2452 15.26164,-8.80456 4.43391,-2.55936 8.88891,-5.12158 9.9,-5.69384 1.0111,-0.57225 3.99836,-2.32252 6.63836,-3.88948 2.64,-1.566955 6.15,-3.604445 7.8,-4.527745 1.65,-0.9233 4.6875,-2.63554 6.75,-3.80498 l 3.75,-2.12626 0,33.752455 0,33.75246 -6.15,3.64854 c -3.3825,2.00669 -7.17855,4.22283 -8.43567,4.92474 -1.25711,0.70191 -4.09211,2.31315 -6.3,3.58053 -2.20788,1.26738 -5.94558,3.43119 -8.306,4.80846 -2.36042,1.37727 -4.60068,2.87646 -4.97836,3.33154 l -0.68669,0.82742 0.17836,22.62329 0.17836,22.62329 8.4,4.82672 c 4.62,2.65469 11.91,6.85439 16.2,9.33265 4.29,2.47827 9.5887,5.45297 11.77487,6.61046 l 3.97488,2.10452 7.12512,-4.10034 c 3.91883,-2.25518 8.88013,-5.09212 11.02513,-6.30429 2.145,-1.21218 7.545,-4.31668 12,-6.89889 4.455,-2.5822 8.56042,-4.98042 9.12315,-5.32938 l 1.02316,-0.63446 0.0397,-22.63482 0.0397,-22.63481 -2.67089,-1.83763 c -1.46905,-1.01069 -2.78606,-1.83762 -2.92675,-1.83762 -0.14069,0 -2.52204,-1.30789 -5.29189,-2.90643 -2.76986,-1.59854 -7.82872,-4.56854 -11.24192,-6.6 -3.41324,-2.03146 -6.32871,-3.69357 -6.47886,-3.69357 -0.15015,0 -1.74504,-0.94164 -3.54418,-2.09255 l -3.27118,-2.09254 0,-39.88217 0,-39.882145 -2.63227,-1.54262 -2.63227,-1.54261 -2.91773,1.74347 c -1.60475,0.95891 -8.45273,4.92312 -15.21773,8.80936 -6.765,3.88623 -13.58656,7.83446 -15.15901,8.77384 -1.57246,0.93939 -2.99533,1.70797 -3.16192,1.70797 -0.16661,0 -1.31005,0.6321 -2.54099,1.40465 -1.23094,0.77256 -3.45308,2.09268 -4.93808,2.933585 -1.485,0.84091 -5.13,2.94949 -8.1,4.68573 -2.97,1.73624 -10.665,6.17947 -17.1,9.87384 -6.435,3.69438 -15.345,8.8286 -19.8,11.40938 -4.455,2.58079 -10.36624,5.99744 -13.1361,7.59258 -2.76985,1.59513 -5.2255,2.90023 -5.45701,2.90023 -0.23149,0 -0.86775,0.49376 -1.4139,1.09725 l -0.99299,1.09724 0,59.20276 0,59.20275 0.31192,0 c 0.17156,0 1.3812,-0.675 2.68808,-1.5 1.30688,-0.825 2.52188,-1.5 2.7,-1.5 0.17812,0 1.33098,-0.63209 2.56192,-1.40465 1.23094,-0.77255 3.45308,-2.08763 4.93808,-2.92238 1.485,-0.83475 5.13,-2.94185 8.1,-4.68242 2.97,-1.74058 7.155,-4.1728 9.3,-5.40493 l 3.9,-2.24024 0.15714,-40.12269 0.15714,-40.12269 1.64286,-0.94428 c 0.90357,-0.51936 5.28786,-3.05751 9.74286,-5.64036 4.455,-2.58283 14.15413,-8.16541 21.55363,-12.40571 7.39949,-4.24031 13.54199,-7.70965 13.65,-7.70965 0.108,0 0.19317,3.1725 0.18925,7.05 l -0.007,7.05 -3.72885,2.1 c -2.05087,1.155 -5.08517,2.87016 -6.74289,3.81147 -1.65771,0.94131 -6.79402,3.89505 -11.41402,6.56388 -4.62,2.66883 -9.41028,5.40867 -10.64505,6.08853 l -2.24505,1.23612 0.002,36.6 0.002,36.6 3.70779,2.1 c 2.03928,1.155 4.93858,2.79768 6.44288,3.6504 1.5043,0.85272 5.97509,3.43464 9.93509,5.73761 3.96,2.30296 11.79,6.84485 17.4,10.09308 5.61,3.24823 11.145,6.43251 12.3,7.07616 1.155,0.64365 4.58249,2.62658 7.61665,4.40652 3.03415,1.77993 5.62791,3.23623 5.7639,3.23623 0.13599,0 2.5135,-1.31029 5.28335,-2.91177 2.76986,-1.60147 7.6686,-4.43647 10.8861,-6.3 3.2175,-1.86352 8.4825,-4.92214 11.7,-6.79692 3.2175,-1.87478 6.66,-3.84174 7.65,-4.37102 0.99,-0.52928 3.79536,-2.15363 6.23414,-3.60967 l 4.43415,-2.64735 2.46585,1.40414 c 1.35622,0.77227 3.87825,2.19305 5.60449,3.15728 1.72626,0.96422 3.28871,1.99595 3.47213,2.29273 l 0.33349,0.53959 -2.57212,1.63713 c -1.41468,0.90042 -4.46213,2.70216 -6.77213,4.00386 -2.31,1.3017 -5.28,2.96942 -6.6,3.70604 -1.32,0.73662 -4.83,2.76087 -7.8,4.49835 -2.97,1.73748 -7.66624,4.47273 -10.4361,6.07833 -2.76985,1.60561 -5.13897,2.91928 -5.26471,2.91928 -0.12573,0 -1.93866,1.08 -4.02873,2.4 -2.09008,1.32 -3.932,2.4 -4.09316,2.4 -0.16116,0 -2.54233,1.33785 -5.29148,2.973 l -4.99847,2.97299 -3.34367,-1.83441 c -1.8388,-1.00893 -7.79846,-4.40565 -13.24346,-7.54827 -5.445,-3.14262 -11.385,-6.59616 -13.2,-7.67454 -1.815,-1.07837 -4.515,-2.63813 -6,-3.46612 -1.485,-0.82799 -6.75,-3.85801 -11.7,-6.73336 -4.95,-2.87536 -10.215,-5.90786 -11.7,-6.7389 -1.485,-0.83103 -2.97,-1.70908 -3.3,-1.95122 -0.33,-0.24214 -2.085,-1.25268 -3.9,-2.24564 l -3.3,-1.80538 -10.2,5.92811 c -5.61,3.26046 -13.11727,7.59021 -16.68283,9.62167 l -6.48283,3.69356 0.78283,0.73381 c 0.43056,0.4036 6.31783,3.91166 13.08283,7.79569 6.765,3.88403 13.11,7.52034 14.1,8.08068 0.99,0.56034 4.59262,2.67919 8.00582,4.70857 3.4132,2.02937 6.31094,3.68976 6.43943,3.68976 0.12849,0 1.99813,1.08 4.15475,2.4 2.15662,1.32 4.03459,2.4 4.17325,2.4 0.13866,0 3.40968,1.89 7.26892,4.20001 3.85924,2.31 7.11128,4.2 7.22675,4.2 0.11547,0 1.97446,1.08 4.13108,2.4 2.15662,1.32 4.05674,2.4 4.22249,2.4 0.16575,0 1.30849,0.6321 2.53943,1.40467 1.23094,0.77258 7.70415,4.55258 14.38489,8.4 6.68075,3.84743 12.26196,6.99533 12.40268,6.99533 0.14073,0 2.63967,-1.38493 5.55319,-3.07762 2.91353,-1.69268 6.51232,-3.7606 7.99732,-4.59535 1.485,-0.83475 3.70714,-2.14983 4.93808,-2.92238 1.23094,-0.77256 2.34223,-1.40465 2.46953,-1.40465 0.1273,0 5.29888,-2.97 11.49239,-6.6 6.19351,-3.63 11.35497,-6.6 11.4699,-6.6 0.11493,0 1.97348,-1.08001 4.1301,-2.40001 2.15662,-1.32 4.01517,-2.4 4.1301,-2.4 0.11493,0 5.27639,-2.97 11.4699,-6.6 6.19351,-3.63 11.36509,-6.6 11.49239,-6.6 0.1273,0 1.23859,-0.63209 2.46953,-1.40465 1.23094,-0.77255 3.45308,-2.08763 4.93808,-2.92238 1.485,-0.83475 5.13,-2.94204 8.1,-4.68285 2.97,-1.74081 7.155,-4.17204 9.3,-5.40273 2.145,-1.23068 5.115,-2.9199 6.6,-3.75382 l 2.7,-1.51621 0.15273,-63.30586 0.15274,-63.30585 -2.55274,-1.44403 c -1.404,-0.79421 -9.03273,-5.17591 -16.95273,-9.73711 -7.92,-4.56119 -16.85804,-9.71186 -19.86232,-11.44592 -3.00428,-1.73406 -6.57642,-3.85613 -7.93808,-4.71571 -1.36166,-0.85958 -2.56768,-1.56288 -2.68002,-1.56288 -0.11234,0 -4.22406,-2.295 -9.13714,-5.1 -4.91308,-2.805 -9.15027,-5.099995 -9.41597,-5.099995 l -0.4831,0 0.15832,19.317835 0.15831,19.31783 3.9,2.27793 c 2.145,1.25286 9.90698,5.72233 17.24885,9.93217 l 13.3497,7.65423 0.001,33.75 10e-4,33.75 -0.31192,0 c -0.17156,0 -1.38119,-0.675 -2.68808,-1.5 -1.30688,-0.825 -2.51246,-1.5 -2.67906,-1.5 -0.1666,0 -1.65696,-0.83316 -3.31192,-1.85146 l -3.00913,-1.85147 0,-26.6036 0,-26.60359 -4.52128,-2.74494 c -2.48671,-1.50972 -4.62859,-2.74494 -4.75975,-2.74494 -0.13116,0 -2.36882,-1.2825 -4.97256,-2.85 -2.60376,-1.5675 -8.283,-4.875 -12.62054,-7.35 l -7.88644,-4.5 -0.0197,-33.35 -0.0193,-33.349995 0.38227,-0.38227 0.38227,-0.38227 1.66035,1.18227 c 0.9132,0.65025 1.8935,1.18227 2.17845,1.18227 0.28496,0 1.45827,0.63348 2.60738,1.40773 1.1491,0.77425 3.34771,2.10546 4.8858,2.95825 1.53808,0.85279 6.29665,3.56951 10.57461,6.03716 4.27794,2.46764 8.88664,5.18643 10.24155,6.04174 1.35491,0.85532 2.6092,1.55512 2.78732,1.55512 0.17812,0 1.33098,0.6321 2.56192,1.40465 1.23094,0.772555 3.45308,2.091475 4.93808,2.930915 1.485,0.83945 5.75207,3.31236 9.48239,5.49535 3.73031,2.183 6.92863,3.96908 7.10738,3.96908 0.17874,0 1.04167,0.50176 1.91761,1.11503 0.87594,0.61326 3.07762,1.94144 4.89262,2.9515 1.815,1.01007 8.43,4.79278 14.7,8.40603 l 11.4,6.56954 0.15258,66.86079 0.15259,66.8608 9.72663,5.66816 c 5.34964,3.11748 10.00598,5.78031 10.34742,5.91738 0.34143,0.13708 2.31304,1.28458 4.38135,2.55 2.06831,1.26543 3.87402,2.30077 4.01268,2.30077 0.13866,0 3.40968,1.89 7.26892,4.2 3.85924,2.31 7.11128,4.2 7.22675,4.2 0.11547,0 1.97446,1.08 4.13108,2.4 2.15662,1.32 4.05674,2.4 4.22249,2.4 0.16575,0 1.30849,0.6321 2.53943,1.40466 1.23094,0.77255 3.45308,2.08763 4.93808,2.92238 1.485,0.83475 5.13,2.93898 8.1,4.67607 2.97,1.73708 7.66624,4.47201 10.4361,6.07761 2.76985,1.60561 5.13772,2.91929 5.26192,2.91929 0.1242,0 1.23296,0.63209 2.4639,1.40465 1.23094,0.77255 3.45308,2.09267 4.93808,2.93358 1.485,0.84091 5.13,2.94598 8.1,4.67794 2.97,1.73194 6.345,3.68254 7.5,4.33465 1.155,0.65211 3.9225,2.26572 6.15,3.5858 l 4.05,2.40013 0,70.37435 0,70.37435 -3.45,1.94999 c -1.8975,1.07249 -4.665,2.6194 -6.15,3.43756 -1.485,0.81817 -2.97,1.69263 -3.3,1.94323 -0.33,0.25062 -3.3,2.00732 -6.6,3.9038 -3.3,1.89647 -9.375,5.39746 -13.5,7.77997 -4.125,2.38251 -10.2,5.89438 -13.5,7.80416 -3.3,1.90977 -10.455,6.03012 -15.9,9.15632 -5.445,3.1262 -13.005,7.49742 -16.8,9.71382 -3.795,2.2164 -8.4525,4.9037 -10.35,5.97179 l -3.45,1.94198 0,-33.88079 0,-33.88078 7.05,-4.04847 c 3.8775,-2.22666 9.75,-5.60042 13.05,-7.49724 3.3,-1.89682 7.89,-4.56086 10.2,-5.9201 l 4.2,-2.47134 0.3,-26.7781 0.3,-26.7781 5.57088,-3.21658 c 3.06398,-1.76912 5.69648,-3.21657 5.85,-3.21657 0.15352,0 0.27912,15.255 0.27912,33.9 l 0,33.9 -0.52163,0 c -0.2869,0 -5.81658,3.105 -12.2882,6.9 -6.4716,3.795 -11.90163,6.9 -12.06671,6.9 -0.16509,0 -1.77743,0.945 -3.58299,2.1 -1.80556,1.155 -3.52395,2.1 -3.81866,2.1 -0.2947,0 -0.98267,0.49376 -1.52882,1.09724 l -0.99299,1.09725 0,19.00275 0,19.00276 0.33243,0 c 0.18284,0 1.73534,-0.78307 3.45,-1.74016 1.71466,-0.95709 7.545,-4.33209 12.9563,-7.5 5.4113,-3.16791 9.93917,-5.75984 10.06193,-5.75984 0.12275,0 1.23032,-0.6321 2.46126,-1.40466 1.23094,-0.77255 3.50757,-2.10994 5.05915,-2.97196 1.5516,-0.86202 6.99974,-4.00367 12.10699,-6.98144 5.10725,-2.97777 10.18277,-5.91892 11.27893,-6.53589 1.09615,-0.61697 3.61301,-2.01834 5.59301,-3.11416 1.98,-1.09582 4.0725,-2.39413 4.65,-2.88514 l 1.05,-0.89274 0,-62.85194 0,-62.85195 -3.75,-2.07111 c -2.0625,-1.13911 -4.695,-2.61928 -5.85,-3.28925 -1.155,-0.66999 -4.4625,-2.59776 -7.35,-4.28396 -2.8875,-1.68619 -7.58374,-4.4158 -10.4361,-6.0658 -2.85235,-1.65 -5.24614,-3 -5.31953,-3 -0.0734,0 -5.20086,-2.97 -11.39437,-6.6 -6.19351,-3.63 -11.35497,-6.6 -11.4699,-6.6 -0.11493,0 -1.97348,-1.08 -4.1301,-2.4 -2.15662,-1.32 -4.0772,-2.40001 -4.26794,-2.40001 -0.19075,0 -1.0635,-0.5028 -1.93944,-1.11735 -0.87594,-0.61453 -5.10262,-3.13426 -9.39262,-5.59939 -4.29,-2.46512 -9.15,-5.23126 -10.8,-6.14697 -1.65,-0.91572 -6.24,-3.56841 -10.2,-5.89487 -3.96,-2.32646 -8.48656,-4.99751 -10.05901,-5.93567 -1.57246,-0.93816 -3.00228,-1.70575 -3.17739,-1.70575 -0.17509,0 -4.01854,2.11798 -8.54098,4.70661 -4.52244,2.58864 -11.86762,6.82446 -16.32262,9.41295 -4.455,2.58849 -9.855,5.6897 -12,6.89157 -2.145,1.20188 -7.545,4.30676 -12,6.89972 -4.455,2.59298 -14.85,8.60302 -23.1,13.35567 -8.25,4.75265 -18.5775,10.69665 -22.95,13.20889 -4.3725,2.51224 -7.95,4.76433 -7.95,5.00464 0,0.2403 3.70294,2.5481 8.22876,5.12844 4.52582,2.58033 9.45332,5.3932 10.95,6.25081 1.49668,0.85761 5.13991,2.95011 8.09606,4.65 2.95616,1.69989 5.61435,3.09071 5.90712,3.09071 0.29276,0 1.92409,-0.77373 3.62517,-1.71941 1.70109,-0.94566 9.30289,-5.30592 16.89289,-9.68945 7.59,-4.38353 14.745,-8.49919 15.9,-9.14591 1.155,-0.64672 6.17787,-3.55882 11.16194,-6.47133 4.98407,-2.91252 10.06262,-5.85753 11.28567,-6.54447 1.22305,-0.68695 4.12404,-2.32584 6.44666,-3.64198 l 4.22293,-2.39299 4.5914,2.61626 c 2.52527,1.43893 6.2114,3.56041 8.1914,4.71439 1.98,1.15398 7.245,4.18795 11.7,6.74215 4.455,2.55419 8.37,4.85283 8.7,5.10808 0.33,0.25524 1.815,1.14032 3.3,1.96684 1.485,0.82652 6.21161,3.51325 10.50358,5.97051 4.29196,2.45727 8.55832,4.96229 9.4808,5.56673 l 1.67723,1.09896 -0.4808,0.45648 c -0.26444,0.25105 -2.88205,1.83092 -5.81691,3.5108 -2.93485,1.67989 -5.44667,3.05434 -5.58181,3.05434 -0.13514,0 -2.86389,-1.5199 -6.0639,-3.37755 -3.20001,-1.85766 -7.03319,-4.06056 -8.51819,-4.89536 -1.485,-0.83478 -3.70714,-2.14989 -4.93808,-2.92244 -1.23094,-0.77256 -2.34435,-1.40465 -2.47425,-1.40465 -0.12989,0 -3.30776,-1.78328 -7.06192,-3.96282 -3.75416,-2.17956 -9.16892,-5.30399 -12.03279,-6.94317 l -5.20704,-2.98035 -5.89296,3.42072 c -3.24113,1.8814 -7.10796,4.10373 -8.59296,4.93852 -1.485,0.83478 -3.70714,2.14989 -4.93808,2.92244 -1.23094,0.77256 -2.37368,1.40466 -2.53943,1.40466 -0.16575,0 -2.06587,1.08 -4.22249,2.4 -2.15662,1.32 -4.05674,2.4 -4.22249,2.4 -0.16575,0 -1.30849,0.63209 -2.53943,1.40465 -1.23094,0.77255 -3.45308,2.08625 -4.93808,2.91931 -1.485,0.83306 -7.02,4.02742 -12.3,7.09857 -5.28,3.07116 -10.3425,5.96224 -11.25,6.42463 l -1.65,0.84072 0.005,36.70606 0.005,36.70606 2.84495,1.54183 c 1.56473,0.848 7.43496,4.19425 13.04496,7.43611 5.61,3.24185 11.28,6.5367 12.6,7.32188 1.32,0.78518 3.2775,1.87645 4.35,2.42502 l 1.95,0.99741 0,7.08887 0,7.08888 -0.34316,0 c -0.18874,0 -1.47124,-0.64767 -2.85,-1.43925 -1.37876,-0.79159 -7.36684,-4.26997 -13.30684,-7.72974 -5.94,-3.45978 -12.15,-7.04301 -13.8,-7.96275 -1.65,-0.91974 -6.05461,-3.44886 -9.78802,-5.62026 l -6.78753,-3.948 -0.11198,-40.15442 -0.11198,-40.15441 -5.03821,-2.89559 c -2.77102,-1.59257 -5.14014,-2.89558 -5.26471,-2.89558 -0.12457,0 -1.90737,-1.03673 -3.96179,-2.30384 -2.05441,-1.26712 -7.30063,-4.37212 -11.65826,-6.9 -4.35763,-2.52789 -8.07144,-4.59616 -8.25291,-4.59616 l -0.32995,0 0.15292,59.52401 0.15291,59.524 9.54103,5.576 c 5.24756,3.06679 9.64042,5.57599 9.76192,5.57599 0.12149,0 1.22803,0.63209 2.45897,1.40465 1.23094,0.77256 3.50757,2.10994 5.05915,2.97196 1.5516,0.86203 6.99974,4.00368 12.10699,6.98144 5.10725,2.97777 10.18277,5.92011 11.27893,6.53854 1.09615,0.61842 6.31301,3.6324 11.59301,6.69773 5.28,3.06532 11.86624,6.8856 14.6361,8.48949 2.76985,1.60391 5.09581,2.91619 5.1688,2.91619 0.073,0 5.18862,2.97 11.36808,6.6 6.17945,3.63 11.35135,6.6 11.49312,6.6 0.14176,0 1.35067,0.68993 2.68648,1.53319 l 2.42873,1.53319 2.65934,-1.55848 2.65935,-1.55849 0,-40.03038 0,-40.03038 1.35,-0.84891 c 0.7425,-0.46691 6.75,-3.94641 13.35,-7.73223 6.6,-3.78582 13.755,-7.891 15.9,-9.12262 l 3.9,-2.23931 0.157,-23.12694 0.157,-23.12696 -1.74962,-1.24584 c -0.96229,-0.68522 -1.8717,-1.24584 -2.0209,-1.24584 -0.14921,0 -2.67253,-1.38059 -5.60738,-3.06798 -2.93486,-1.68738 -7.6311,-4.42619 -10.4361,-6.08622 -2.805,-1.66003 -5.91,-3.47783 -6.9,-4.03956 -0.99,-0.56172 -4.26699,-2.41292 -7.2822,-4.11378 -3.01521,-1.70085 -5.85021,-3.09195 -6.3,-3.09132 -0.44979,6e-4 -3.06155,1.35063 -5.80393,3 -2.74236,1.64937 -5.11023,2.99886 -5.26192,2.99886 -0.15168,0 -1.28293,0.63209 -2.51387,1.40465 -1.23094,0.77255 -3.45308,2.08196 -4.93808,2.9098 -1.485,0.82783 -5.67,3.25302 -9.3,5.3893 -3.63,2.13629 -7.8825,4.61826 -9.45,5.51549 l -2.85,1.63134 0,23.0177 0,23.01769 2.55,1.48973 c 1.4025,0.81934 3.765,2.16908 5.25,2.99941 1.485,0.83034 8.1,4.6262 14.7,8.43524 l 12,6.92553 0.15498,33.98407 0.15497,33.98407 -1.95497,-1.20034 c -1.07524,-0.66019 -5.46498,-3.20668 -9.75498,-5.65888 -4.29,-2.45219 -10.5,-6.02328 -13.8,-7.93575 -3.3,-1.91247 -9.375,-5.42654 -13.5,-7.80905 -4.125,-2.38251 -10.2,-5.89407 -13.5,-7.80348 -3.3,-1.90939 -10.995,-6.34764 -17.1,-9.86275 -6.105,-3.51512 -13.86409,-7.99821 -17.24241,-9.96245 l -6.14241,-3.57132 -0.008,-46.95 -0.008,-46.95 0.35251,0 c 0.19388,0 2.15138,0.99141 4.35,2.20313 2.19862,1.21172 4.73999,2.71511 5.64749,3.34086 l 1.65,1.13772 0.004,40.00914 0.004,40.00915 1.9462,1.11182 c 1.07042,0.61151 3.43121,1.93656 5.24621,2.94457 1.815,1.00801 4.30714,2.46519 5.53808,3.23817 1.23094,0.773 2.34223,1.40544 2.46953,1.40544 0.1273,0 5.29888,2.97 11.49239,6.6 6.19351,3.63 11.36509,6.6 11.49239,6.6 0.1273,0 1.23859,0.63209 2.46953,1.40465 1.23094,0.77256 3.50757,2.10994 5.05915,2.97196 1.5516,0.86203 7.0364,4.02504 12.18844,7.02893 5.15205,3.00389 9.75506,5.61039 10.22893,5.79223 l 0.86195,0.33062 -0.008,-19.4142 -0.008,-19.41419 -5.84216,-3.33744 c -3.21325,-1.83559 -9.48722,-5.45757 -13.94222,-8.04884 -4.455,-2.59127 -9.585,-5.55594 -11.4,-6.58816 l -3.3,-1.87675 -0.15247,-30.57441 -0.15247,-30.5744 4.95247,-2.78284 c 2.72386,-1.53056 8.32747,-4.74447 12.45247,-7.14202 4.125,-2.39755 12.765,-7.37934 19.2,-11.07066 6.435,-3.69131 12.61526,-7.27442 13.7339,-7.96247 l 2.03391,-1.25099 4.76362,2.95449 c 2.61999,1.62496 4.89472,2.95449 5.05495,2.95449 0.16023,0 3.44634,1.85749 7.30247,4.12776 3.85613,2.27026 11.60115,6.75298 17.21115,9.9616 5.61,3.20862 10.5281,6.10139 10.92911,6.42837 l 0.72911,0.59453 3.54938,-2.15613 c 1.95215,-1.18587 3.71131,-2.15613 3.90923,-2.15613 0.19793,0 1.78261,-0.90178 3.52152,-2.00395 1.73891,-1.10217 7.54915,-4.49806 12.91165,-7.54642 5.3625,-3.04837 9.75,-5.62561 9.75,-5.72722 0,-0.10161 -1.9575,-1.34429 -4.35,-2.76152 -2.3925,-1.41723 -5.835,-3.4392 -7.65,-4.49325 -1.815,-1.05405 -4.72156,-2.76048 -6.45901,-3.79206 -1.73746,-1.03157 -3.26484,-1.87558 -3.39418,-1.87558 -0.12935,0 -2.89279,-1.57661 -6.14099,-3.50358 -3.2482,-1.92697 -11.30582,-6.62357 -17.90582,-10.43689 -6.6,-3.81332 -16.01681,-9.25671 -20.92625,-12.09642 -4.90944,-2.83972 -9.05276,-5.16311 -9.20738,-5.16311 -0.15462,0 -1.06531,-0.55839 -2.02375,-1.24086 l -1.74262,-1.24086 -1.65,1.15618 c -0.9075,0.63591 -5.43,3.31177 -10.05,5.94637 -4.62,2.63459 -11.96539,6.84667 -16.3231,9.36016 -4.35769,2.51349 -9.00983,5.25601 -10.33807,6.0945 -1.32824,0.83848 -2.55059,1.52451 -2.71634,1.52451 -0.16575,0 -2.06587,1.08 -4.22249,2.4 -2.15662,1.32 -4.01264,2.4 -4.12447,2.4 -0.11184,0 -2.60458,1.39504 -5.53943,3.10011 -2.93486,1.70505 -7.41331,4.29018 -9.95212,5.74472 l -4.61601,2.64461 -2.27326,-1.54472 c -1.2503,-0.8496 -2.46266,-1.54472 -2.69412,-1.54472 -0.23147,0 -1.7888,-0.85036 -3.46072,-1.88969 -1.67193,-1.03933 -3.03987,-2.05438 -3.03987,-2.25567 0,-0.2013 0.4725,-0.65773 1.05,-1.01432 0.5775,-0.35658 6.585,-3.83767 13.35,-7.73575 6.765,-3.89809 13.19686,-7.59255 14.29301,-8.20991 1.09616,-0.61736 6.17168,-3.55884 11.27893,-6.53661 5.10725,-2.97776 10.55539,-6.11264 12.10699,-6.96638 1.55158,-0.85374 3.09107,-1.74999 3.42107,-1.99167 0.33,-0.24168 1.86949,-1.13794 3.42107,-1.99168 1.5516,-0.85374 7.01048,-3.99487 12.13085,-6.98029 l 9.30976,-5.42804 0.97654,0 c 0.5371,0 1.69322,0.50326 2.56916,1.11834 0.87594,0.61509 3.61762,2.26892 6.09262,3.67517 2.475,1.40626 5.715,3.24091 7.2,4.07701 1.485,0.8361 3.70714,2.15228 4.93808,2.92483 1.23094,0.77256 2.33877,1.40465 2.46184,1.40465 0.12307,0 3.97594,2.19775 8.56192,4.88389 4.58599,2.68613 15.62816,9.07217 24.53816,14.1912 8.91,5.11902 17.20714,9.94128 18.43808,10.71612 1.23094,0.77484 2.37368,1.4088 2.53943,1.4088 0.16575,0 2.06587,1.08 4.22249,2.4 2.15662,1.32 4.04411,2.4 4.19441,2.4 0.15029,0 2.37304,1.26258 4.93943,2.80574 2.56639,1.54316 5.27366,3.16939 6.01616,3.61384 l 1.35,0.80808 0,57.23858 0,57.23858 -9.15,5.23354 c -5.0325,2.87844 -10.635,6.09768 -12.45,7.15385 -1.815,1.05617 -7.89,4.55822 -13.5,7.78234 -5.61,3.2241 -10.4025,5.98222 -10.65,6.12914 l -0.45,0.26713 0,-7.11603 0,-7.11603 4.61716,-2.66939 c 2.53944,-1.46815 6.27257,-3.61437 8.29585,-4.76937 2.02328,-1.155 7.63937,-4.395 12.4802,-7.2 l 8.80152,-5.1 0.002,-46.05 0.003,-46.05 -0.41153,0 c -0.22634,0 -5.01884,2.67111 -10.65,5.9358 -5.63116,3.26469 -13.07347,7.56014 -16.53847,9.54545 l -6.3,3.60965 -0.17406,26.90455 -0.17407,26.90455 -4.62593,2.64888 c -2.54427,1.45689 -6.11094,3.4626 -7.92594,4.45714 -1.815,0.99454 -7.485,4.26247 -12.6,7.26208 l -9.3,5.45383 -0.15821,40.18904 -0.15822,40.18903 -1.34178,0.64991 c -0.73799,0.35745 -3.77179,2.0821 -6.74179,3.83255 -2.97,1.75045 -6.33143,3.65483 -7.46986,4.23195 l -2.06985,1.04932 -2.13015,-1.33651 c -1.17157,-0.73509 -3.34514,-2.02454 -4.83014,-2.86545 -1.485,-0.84092 -5.13,-2.94599 -8.1,-4.67794 -2.97,-1.73195 -6.21,-3.6104 -7.2,-4.17434 -0.99,-0.56394 -4.365,-2.50635 -7.5,-4.31646 -3.135,-1.81011 -6.915,-3.98166 -8.4,-4.82565 -1.485,-0.84401 -5.13,-2.95265 -8.1,-4.68588 -2.97,-1.73324 -10.665,-6.1891 -17.1,-9.90192 -6.435,-3.71283 -18.45,-10.64274 -26.7,-15.39981 -8.25,-4.75707 -17.23297,-9.94288 -19.96216,-11.52402 l -4.96216,-2.8748 -0.87057,0.33406 c -0.47882,0.18374 -4.59084,2.46737 -9.13784,5.07472 -4.547,2.60736 -15.15227,8.72317 -23.56727,13.59068 -8.415,4.86752 -20.565,11.88599 -27,15.5966 -6.435,3.7106 -15.26539,8.80022 -19.6231,11.31026 -4.35769,2.51004 -9.00983,5.24974 -10.33807,6.08822 -1.32824,0.83848 -2.55129,1.52451 -2.7179,1.52451 -0.16659,0 -1.58946,0.76745 -3.16192,1.70546 -1.57245,0.938 -6.50401,3.81405 -10.95901,6.39123 -4.455,2.57718 -8.235,4.74029 -8.4,4.8069 z"
       style="fill:#bababa;fill-opacity:1" />
    <path
       d="m -637.04314,220.08966 -31.53267,18.20539 -31.53266,-18.20539 0,-36.41079 31.53266,-18.2054 31.53267,18.2054 z"
       inkscape:randomized="0"
       inkscape:rounded="0"
       inkscape:flatsided="true"
       sodipodi:arg2="1.0471976"
       sodipodi:arg1="0.52359878"
       sodipodi:r2="31.532669"
       sodipodi:r1="36.410789"
       sodipodi:cy="201.88426"
       sodipodi:cx="-668.57581"
       sodipodi:sides="6"
       id="path4271"
       style="fill:#80ab5d;fill-opacity:1;stroke:#5e9531;stroke-width:5.5;stroke-miterlimit:4;stroke-dasharray:none;stroke-opacity:1"
       sodipodi:type="star" />
    <path
       d="m -752.22862,419.76667 -31.53267,18.2054 -31.53267,-18.2054 0,-36.41079 31.53267,-18.20539 31.53267,18.20539 z"
       inkscape:randomized="0"
       inkscape:rounded="0"
       inkscape:flatsided="true"
       sodipodi:arg2="1.0471976"
       sodipodi:arg1="0.52359878"
       sodipodi:r2="31.532669"
       sodipodi:r1="36.410789"
       sodipodi:cy="401.56128"
       sodipodi:cx="-783.76129"
       sodipodi:sides="6"
       id="path4271-8"
       style="fill:#bf655f;fill-opacity:1;stroke:#ad352d;stroke-width:5.5;stroke-miterlimit:4;stroke-dasharray:none;stroke-opacity:1"
       sodipodi:type="star" />
    <path
       d="m -520.9749,419.83039 -31.53267,18.2054 -31.53267,-18.2054 0,-36.41078 31.53267,-18.2054 31.53267,18.2054 z"
       inkscape:randomized="0"
       inkscape:rounded="0"
       inkscape:flatsided="true"
       sodipodi:arg2="1.0471976"
       sodipodi:arg1="0.52359878"
       sodipodi:r2="31.532669"
       sodipodi:r1="36.410789"
       sodipodi:cy="401.625"
       sodipodi:cx="-552.50757"
       sodipodi:sides="6"
       id="path4271-3"
       style="fill:#9e7abe;fill-opacity:1;stroke:#7e4da9;stroke-width:5.5;stroke-miterlimit:4;stroke-dasharray:none;stroke-opacity:1"
       sodipodi:type="star" />
  </g>
  <text
     xml:space="preserve"
     style="font-style:normal;font-weight:normal;font-size:40px;line-height:125%;font-family:sans-serif;letter-spacing:0px;word-spacing:0px;fill:#bababa;fill-opacity:1;stroke:none;stroke-width:1px;stroke-linecap:butt;stroke-linejoin:miter;stroke-opacity:1"
     x="1027.0798"
     y="660.83728"
     id="text4300"
     sodipodi:linespacing="125%"><tspan
       sodipodi:role="line"
       id="tspan4302"
       x="1027.0798"
       y="660.83728"
       style="font-style:normal;font-variant:normal;font-weight:normal;font-stretch:normal;font-size:500px;font-family:'DejaVu Sans';-inkscape-font-specification:'DejaVu Sans';fill:#bababa;fill-opacity:1">StochasticSearch.jl</tspan></text>
</svg>
