<?xml version="1.0" encoding="UTF-8" standalone="no"?>
<!-- Created with Inkscape (http://www.inkscape.org/) -->

<svg
   xmlns:dc="http://purl.org/dc/elements/1.1/"
   xmlns:cc="http://creativecommons.org/ns#"
   xmlns:rdf="http://www.w3.org/1999/02/22-rdf-syntax-ns#"
   xmlns:svg="http://www.w3.org/2000/svg"
   xmlns="http://www.w3.org/2000/svg"
   xmlns:sodipodi="http://sodipodi.sourceforge.net/DTD/sodipodi-0.dtd"
   xmlns:inkscape="http://www.inkscape.org/namespaces/inkscape"
   id="svg2"
   version="1.1"
   inkscape:version="0.91 r13725"
   width="5343.6816"
   height="1045.7958"
   viewBox="0 0 5343.6817 1045.7958"
   sodipodi:docname="logo.svg"
   inkscape:export-filename="/home/phrb/.julia/v0.5/StochasticSearch/img/logo.png"
   inkscape:export-xdpi="300"
   inkscape:export-ydpi="300">
  <metadata
     id="metadata8">
    <rdf:RDF>
      <cc:Work
         rdf:about="">
        <dc:format>image/svg+xml</dc:format>
        <dc:type
           rdf:resource="http://purl.org/dc/dcmitype/StillImage" />
        <dc:title></dc:title>
      </cc:Work>
    </rdf:RDF>
  </metadata>
  <defs
     id="defs6" />
  <sodipodi:namedview
     pagecolor="#ffffff"
     bordercolor="#666666"
     borderopacity="1"
     objecttolerance="10"
     gridtolerance="10"
     guidetolerance="10"
     inkscape:pageopacity="0"
     inkscape:pageshadow="2"
     inkscape:window-width="1920"
     inkscape:window-height="1050"
     id="namedview4"
     showgrid="false"
     fit-margin-top="50"
     fit-margin-left="50"
     fit-margin-right="50"
     fit-margin-bottom="50"
     inkscape:zoom="0.16835876"
     inkscape:cx="2246.2735"
     inkscape:cy="473.81218"
     inkscape:window-x="0"
     inkscape:window-y="30"
     inkscape:window-maximized="0"
     inkscape:current-layer="svg2" />
  <g
     id="g4821">
    <path
       inkscape:connector-curvature="0"
       id="path3453"
       d="m 289.29838,995.48113 c -0.32416,0.13084 -8.16291,-4.09547 -17.41945,-9.39184 l -16.83007,-9.6298 0.0487,-78.4726 0.0487,-78.4726 -9.15134,-5.52042 c -5.0332,-3.03623 -10.21217,-6.1171 -11.5088,-6.84638 -1.29663,-0.72925 -6.86624,-3.9476 -12.37692,-7.15185 -5.51067,-3.20427 -12.14116,-7.02836 -14.73442,-8.49801 -2.59326,-1.46965 -8.31674,-4.7838 -12.71884,-7.36482 l -8.00381,-4.69275 0.0697,-52.33146 0.0697,-52.33147 -10.33667,-6.01707 c -5.68497,-3.30937 -12.19301,-7.05659 -14.46211,-8.32715 -2.2691,-1.27055 -9.43003,-5.39376 -15.91318,-9.16267 -6.48315,-3.76891 -14.88853,-8.62425 -18.67862,-10.78966 -3.79008,-2.16541 -7.37055,-3.9371 -7.95659,-3.9371 l -1.06551,0 0,90.14751 0,90.14749 2.6522,1.69973 c 1.4587,0.93487 5.35824,3.20145 8.66561,5.03689 3.30736,1.83542 17.49438,9.96764 31.52668,18.07158 l 25.5133,14.73442 0.004,13.93889 0.004,13.9389 -6.18846,-3.43617 c -3.40365,-1.88989 -9.37109,-5.29341 -13.26098,-7.56335 -3.88989,-2.26997 -17.68131,-10.24055 -30.64761,-17.71241 -12.96629,-7.47189 -27.55337,-15.93442 -32.41573,-18.80567 l -8.840656,-5.22042 0,-112.30807 0,-112.30809 5.893766,-3.2599 c 3.24158,-1.79296 9.60685,-5.39101 14.14505,-7.99567 4.5382,-2.60463 20.18616,-11.63408 34.77324,-20.06539 14.58709,-8.43134 33.89345,-19.64736 42.90304,-24.92452 9.00957,-5.27717 16.55897,-9.59482 16.77647,-9.59482 0.21748,0 3.86198,-2.12176 8.09885,-4.71502 4.23687,-2.59326 7.90402,-4.71502 8.1492,-4.71502 0.24518,0 9.55174,-5.33737 20.68126,-11.86081 11.12954,-6.52345 22.98709,-13.43719 26.35012,-15.36388 3.36304,-1.9267 8.3887,-4.66121 11.16814,-6.07668 l 5.05354,-2.57361 2.51548,1.57094 c 1.38352,0.86401 4.94426,2.92013 7.91278,4.56913 2.96849,1.64902 7.37587,4.24002 9.79417,5.75776 2.41831,1.51777 4.6832,2.75956 5.03314,2.75956 0.34991,0 2.61483,1.24182 5.03312,2.75958 2.41829,1.51775 6.78389,4.11124 9.7013,5.76329 2.91742,1.65204 10.07835,5.78817 15.91318,9.19137 5.83483,3.40322 12.99576,7.52452 15.91318,9.15845 2.91742,1.63397 7.28299,4.21263 9.70128,5.73037 2.41832,1.51777 4.59424,2.75958 4.83539,2.75958 0.24117,0 9.13656,5.09556 19.76757,11.32347 10.63098,6.2279 23.57258,13.74085 28.7591,16.69542 5.18652,2.95456 11.83483,6.74386 14.77401,8.42064 2.9392,1.6768 6.38264,3.672 7.65208,4.43377 1.26946,0.76177 2.0473,1.61047 1.72854,1.88604 -0.31875,0.27556 -5.70353,3.53481 -11.9662,7.24278 l -11.38662,6.74174 -4.79781,-3.02873 c -2.63828,-1.66579 -5.08359,-3.02871 -5.43352,-3.02871 -0.34993,0 -2.61483,-1.24441 -5.03312,-2.76533 -2.4183,-1.52093 -11.55784,-6.90717 -20.31009,-11.9694 -8.75225,-5.06224 -26.25675,-15.13947 -38.89888,-22.39386 -12.64214,-7.25438 -29.88142,-17.17853 -38.30951,-22.05368 -8.42809,-4.87513 -17.18034,-9.95363 -19.44944,-11.28557 l -4.12564,-2.42165 -19.91583,11.6909 c -10.95371,6.43001 -20.02768,11.69093 -20.16438,11.69093 -0.13673,0 -4.96597,2.7285 -10.73175,6.06333 -5.7658,3.33483 -14.99198,8.69795 -20.50266,11.91803 -5.51067,3.22006 -12.40638,7.20635 -15.3238,8.85839 -2.91741,1.65205 -7.28299,4.24554 -9.7013,5.76329 -2.41829,1.51776 -4.61675,2.75958 -4.88546,2.75958 -0.26872,0 -9.16413,5.09064 -19.76755,11.31254 -10.60346,6.22189 -22.19641,12.91411 -25.76214,14.87159 -3.56573,1.95746 -7.16889,4.202 -8.00702,4.98786 l -1.52388,1.42881 8.92284,5.50655 c 4.90756,3.02859 9.24905,5.50654 9.64776,5.50654 0.39872,0 4.08451,2.12176 8.19066,4.71502 4.10613,2.59326 7.73457,4.71502 8.0632,4.71502 0.32862,0 4.06405,2.12175 8.30093,4.71501 4.23687,2.59326 7.949,4.71502 8.24915,4.71502 0.30015,0 3.48617,1.88096 7.08001,4.17992 l 6.53427,4.17992 9.10711,-5.1887 c 5.0089,-2.8538 12.55495,-7.20154 16.76899,-9.66166 4.21405,-2.46013 9.78366,-5.65621 12.37692,-7.1024 2.59326,-1.44619 11.34551,-6.47588 19.44944,-11.17706 8.10394,-4.70121 19.05397,-11.08648 24.33339,-14.18953 l 9.59899,-5.64189 2.18855,1.50558 c 1.20373,0.82806 9.34951,5.63722 18.10176,10.68704 8.75224,5.0498 24.4002,14.06159 34.77324,20.02618 10.37303,5.9646 24.04972,13.84243 30.39264,17.50629 6.34291,3.66384 12.84079,7.51872 14.43973,8.5664 l 2.90717,1.90484 0,59.2629 0,59.26288 -12.67161,7.45943 c -6.96938,4.10269 -13.73248,8.03869 -15.02911,8.74669 -1.29663,0.70798 -5.00957,2.84612 -8.25101,4.7514 -3.24139,1.9053 -7.78694,4.52506 -10.10121,5.82169 -2.31425,1.29663 -8.28181,4.71741 -13.26126,7.60172 l -9.05354,5.24426 0,38.20108 0,38.2011 1.55303,-0.59596 c 0.85417,-0.32777 7.00357,-3.83238 13.66534,-7.78803 6.66176,-3.95562 12.3387,-7.19205 12.61543,-7.19205 0.27674,0 2.48175,-1.24181 4.90004,-2.75958 2.4183,-1.51774 6.78389,-4.10131 9.70131,-5.74128 2.91741,-1.63994 10.07834,-5.77116 15.91318,-9.18045 5.83483,-3.40931 12.99576,-7.5405 15.91318,-9.18045 2.91741,-1.63996 7.28301,-4.22353 9.7013,-5.74129 2.41829,-1.51777 4.66331,-2.75957 4.98894,-2.75957 0.32563,0 4.05858,-2.12175 8.29546,-4.71501 4.23687,-2.59326 7.88903,-4.71502 8.11588,-4.71502 0.22685,0 6.61577,-3.71307 14.1976,-8.25128 7.58182,-4.5382 14.28261,-8.25127 14.89059,-8.25127 l 1.10543,0 0.008,-79.27121 0.008,-79.27121 10.30632,-5.89377 c 5.66847,-3.24157 10.96936,-6.06528 11.77976,-6.2749 l 1.47344,-0.38111 -0.002,92.32394 -0.002,92.32393 -12.66897,7.25309 c -6.96942,3.9892 -19.30096,11.09527 -27.40489,15.79129 -8.10394,4.696 -23.22146,13.41882 -33.59449,19.384 -10.37304,5.96519 -24.16446,13.92079 -30.64761,17.67911 -6.48314,3.75832 -22.1311,12.784 -34.77324,20.05709 -12.64214,7.27309 -27.49444,15.89395 -33.00511,19.15747 l -10.01941,5.93367 -0.30461,-66.11469 -0.30459,-66.11468 0.89397,-0.87589 c 0.4917,-0.48172 14.95063,-8.92949 32.13097,-18.7728 17.18034,-9.84332 32.16525,-18.71246 33.2998,-19.70918 l 2.06282,-1.81223 0,-44.43376 0,-44.43376 -5.9721,-3.71247 c -3.28464,-2.04186 -6.21261,-3.71245 -6.50657,-3.71245 -0.29396,0 -2.51308,-1.24181 -4.93137,-2.75958 -2.4183,-1.51774 -6.89094,-4.14516 -9.93916,-5.83868 -3.04826,-1.69354 -13.75162,-7.86557 -23.78527,-13.71567 -10.03365,-5.85009 -20.15371,-11.70972 -22.48902,-13.02138 -2.33528,-1.31166 -5.06025,-2.38481 -6.05547,-2.38481 l -1.80949,0 -10.23689,6.06429 c -5.6303,3.33537 -12.35864,7.26119 -14.9519,8.72406 -2.59326,1.46285 -13.21315,7.61878 -23.59976,13.67981 -10.38659,6.06106 -20.86881,12.07223 -23.29381,13.35819 l -4.40909,2.3381 0.30811,45.89153 0.30813,45.89152 14.73442,8.51687 c 8.10394,4.68429 22.95624,13.27719 33.00511,19.09533 l 18.27069,10.57845 0.3029,78.85408 0.30288,78.85409 5.34375,3.22774 5.34372,3.22773 4.7394,-2.41785 c 2.60665,-1.32983 7.59895,-4.2471 11.09398,-6.48285 3.49504,-2.23574 6.56919,-4.06499 6.83147,-4.06499 0.26227,0 4.92909,-2.56346 10.37071,-5.69658 5.44164,-3.13313 18.27385,-10.58406 28.51609,-16.55763 10.24219,-5.97359 21.11619,-12.24666 24.16445,-13.94018 3.04822,-1.69351 7.52087,-4.32094 9.93916,-5.8387 2.41829,-1.51776 4.63967,-2.75956 4.93638,-2.75956 0.29672,0 6.74281,-3.71308 14.32464,-8.25128 7.58182,-4.5382 13.97074,-8.25128 14.1976,-8.25128 0.22685,0 3.879,-2.12175 8.11587,-4.71501 4.23688,-2.59326 7.96984,-4.71502 8.29547,-4.71502 0.32563,0 2.57064,-1.24182 4.98893,-2.75958 2.4183,-1.51774 6.78389,-4.10132 9.70131,-5.74128 2.91741,-1.63994 10.07834,-5.77063 15.91318,-9.17929 5.83483,-3.40866 12.2001,-7.10859 14.14504,-8.2221 1.94495,-1.11349 8.44283,-4.79227 14.43974,-8.17506 l 10.90348,-6.1505 0,-117.32738 0,-117.32735 -4.42033,2.63824 c -2.43118,1.45107 -9.4595,5.56315 -15.61849,9.13798 -6.15899,3.57483 -12.78948,7.39772 -14.73443,8.4953 -1.94494,1.09758 -6.7189,3.78775 -10.60878,5.97815 -3.88989,2.19038 -10.25516,5.91143 -14.14505,8.26898 l -7.07253,4.28646 -0.25396,78.82369 -0.25396,78.82367 -22.73174,13.0761 c -12.50246,7.19183 -27.44919,15.82114 -33.21499,19.1762 -5.76578,3.35507 -10.62299,6.10013 -10.79381,6.10013 -0.17072,0 -5.67052,3.18264 -12.22156,7.07253 -6.55104,3.88989 -12.17,7.07252 -12.48658,7.07252 -0.31657,0 -0.57427,-6.23266 -0.57264,-13.85036 l 0.002,-13.85036 17.97307,-10.33142 c 9.88574,-5.68226 25.13455,-14.47707 33.8868,-19.54398 l 15.91318,-9.21257 0.30376,-72.13766 0.30375,-72.13765 -2.07188,-0.77406 c -1.13954,-0.42577 -5.39649,-2.79766 -9.45987,-5.2709 -4.06338,-2.47324 -7.65438,-4.49679 -7.98001,-4.49679 -0.32563,0 -2.57065,-1.24182 -4.98894,-2.75958 -2.41829,-1.51774 -6.78389,-4.09079 -9.7013,-5.71784 -2.91742,-1.62704 -17.5045,-10.01232 -32.41574,-18.63392 -14.91123,-8.62162 -29.49832,-17.00689 -32.41573,-18.63394 -2.91742,-1.62706 -7.28301,-4.2001 -9.7013,-5.71784 -2.4183,-1.51777 -4.68319,-2.75956 -5.03313,-2.75956 -0.34993,0 -2.72449,-1.31826 -5.27679,-2.92948 l -4.64057,-2.92946 -2.11384,0.78053 c -1.16261,0.42928 -3.97038,1.92848 -6.23948,3.33151 -2.2691,1.40305 -6.51262,3.89007 -9.43004,5.52669 -2.91741,1.63662 -13.79142,7.90343 -24.16445,13.92623 -10.37304,6.02281 -23.3123,13.52029 -28.75394,16.66108 -5.44162,3.14079 -10.09349,5.71053 -10.33751,5.71053 -0.24401,0 -2.53193,1.31826 -5.08422,2.92946 l -4.64058,2.92948 -2.11384,-0.79018 c -1.16261,-0.4346 -5.43844,-2.81374 -9.5018,-5.28698 -4.0634,-2.47325 -7.84414,-4.49679 -8.40165,-4.49679 -0.55751,0 -1.61558,-0.72529 -2.35128,-1.61175 l -1.33761,-1.61173 1.48796,-1.23361 c 0.81878,-0.67849 4.67101,-3.05166 8.5609,-5.2737 3.88989,-2.22207 17.68131,-10.16507 30.6476,-17.65112 12.9663,-7.48605 30.20557,-17.44493 38.30951,-22.13081 8.10393,-4.68586 19.10114,-11.09524 24.4382,-14.24304 l 9.70378,-5.72329 7.38815,3.92111 c 4.0635,2.15661 13.75343,7.62167 21.53321,12.14458 7.77977,4.5229 16.53202,9.55768 19.44944,11.18838 2.91741,1.63071 17.50449,10.039 32.41573,18.6851 14.91124,8.6461 33.47088,19.33614 41.24364,23.75567 7.77275,4.4195 14.66846,8.03173 15.3238,8.02715 0.65533,-0.004 9.36955,-4.77853 19.36495,-10.60878 9.99538,-5.83026 18.36035,-10.60046 18.58879,-10.60046 0.22846,0 2.39397,-1.24181 4.81226,-2.75958 2.4183,-1.51774 6.78389,-4.10185 9.70131,-5.74242 2.91741,-1.64059 7.02496,-3.97923 9.1279,-5.19702 2.10291,-1.2178 3.82684,-2.50036 3.83095,-2.85017 0.004,-0.34982 -3.57302,-2.612 -7.94915,-5.02707 -4.37612,-2.41509 -12.99576,-7.35629 -19.15475,-10.98047 -6.15899,-3.62416 -13.85036,-8.05321 -17.09193,-9.84232 -3.24158,-1.78911 -7.75031,-4.3275 -10.01941,-5.64087 -2.2691,-1.31337 -8.8996,-5.17391 -14.73443,-8.57899 -5.83483,-3.40507 -24.40021,-14.1431 -41.25639,-23.86229 -16.85618,-9.71918 -37.54331,-21.63316 -45.9714,-26.47552 -8.42809,-4.84234 -17.44556,-10.01695 -20.03882,-11.49914 -2.59326,-1.48216 -9.48897,-5.47004 -15.3238,-8.86193 l -10.60879,-6.1671 -2.94688,1.72591 c -1.62079,0.94925 -8.25128,4.808 -14.73443,8.57499 -6.48315,3.767 -13.64408,7.89024 -15.91318,9.16274 -2.2691,1.27251 -8.51805,4.90419 -13.88653,8.0704 -5.36847,3.16621 -9.96781,5.75674 -10.22072,5.75674 -0.25292,0 -4.73607,2.6522 -9.96257,5.89377 -5.2265,3.24158 -9.70113,5.89377 -9.94362,5.89377 -0.2425,0 -5.02577,2.6522 -10.62947,5.89377 -5.60372,3.2416 -14.8299,8.60469 -20.50266,11.91803 -5.67275,3.31334 -12.43585,7.23694 -15.02911,8.71911 -2.59326,1.48218 -11.87595,6.80598 -20.62819,11.83066 -8.75225,5.02469 -18.8306,10.81697 -22.39633,12.87172 -3.56573,2.05474 -8.72696,5.15927 -11.46941,6.89893 -2.74247,1.73965 -5.19458,3.16301 -5.44915,3.16301 -0.25455,0 -7.293421,3.94445 -15.641907,8.76545 l -15.17907,8.76545 -0.300033,124.15515 -0.300032,124.15516 6.193802,3.68891 c 3.406599,2.02891 8.845999,5.14267 12.087573,6.91948 3.241573,1.77681 6.424209,3.61905 7.072524,4.09385 0.648314,0.4748 3.565733,2.18072 6.483143,3.79093 2.91742,1.61022 13.79143,7.85206 24.16446,13.87078 10.37304,6.01869 20.7166,11.9961 22.9857,13.2831 2.2691,1.287 9.43004,5.39677 15.91318,9.13283 6.48315,3.73604 13.9093,7.97828 16.50256,9.4272 2.59326,1.44891 9.09839,5.21958 14.45583,8.37927 l 9.74081,5.7449 -0.31078,-38.51483 -0.31078,-38.5148 -17.68131,-10.46251 c -9.72472,-5.75436 -18.47697,-10.79385 -19.44944,-11.19885 -0.97247,-0.405 -4.27177,-2.26533 -7.33177,-4.13406 -3.05999,-1.86874 -7.83394,-4.6808 -10.60879,-6.24901 -2.77483,-1.56822 -6.76907,-3.75254 -8.8761,-4.85403 l -3.83095,-2.00272 0,-66.3813 c 0,-36.5097 0.23534,-66.38128 0.52296,-66.38128 0.28761,0 5.59201,2.96773 11.78754,6.59498 l 11.26458,6.59495 0,52.2075 0,52.20749 7.95659,4.73617 c 4.37613,2.60491 14.58708,8.55412 22.69102,13.2205 8.10393,4.66635 19.90621,11.46122 26.22727,15.0997 l 11.49286,6.61542 0,66.34837 0,66.34841 -0.91647,0 c -0.50407,0 -1.96278,-0.73 -3.24157,-1.62224 -1.27881,-0.89222 -9.48604,-5.75136 -18.23829,-10.79808 -8.75225,-5.04671 -19.46211,-11.20378 -23.79969,-13.68234 -4.33758,-2.47857 -9.64197,-5.50783 -11.78754,-6.73163 -2.14557,-1.22384 -7.87932,-4.59107 -12.74168,-7.48273 -4.86236,-2.89166 -11.22764,-6.59106 -14.14505,-8.22087 -2.91742,-1.6298 -10.60879,-6.04744 -17.09194,-9.81698 -6.48314,-3.76951 -14.70495,-8.54119 -18.27068,-10.60369 C 108.9179,892.03727 95.391695,884.23309 82.425401,876.7572 69.459107,869.28131 56.858992,861.98252 54.42516,860.53766 L 50,857.91065 50.299521,719.3138 50.599043,580.71692 63.565337,573.16388 c 7.131461,-4.15416 15.35327,-8.89195 18.270687,-10.52843 2.917416,-1.63647 7.691369,-4.33974 10.608786,-6.00729 2.917416,-1.66754 11.83335,-6.91245 19.81318,-11.65534 7.97983,-4.74289 14.66681,-8.62343 14.85997,-8.62343 0.19312,0 4.80342,-2.56348 10.24504,-5.6966 5.44164,-3.13313 18.27387,-10.58406 28.51608,-16.55763 10.2422,-5.97359 21.1162,-12.24664 24.16446,-13.94018 3.04824,-1.69351 7.52086,-4.32094 9.93915,-5.83868 2.4183,-1.51776 4.63968,-2.75958 4.93639,-2.75958 0.29671,0 6.74281,-3.71308 14.32463,-8.25128 7.58183,-4.5382 13.97075,-8.25128 14.1976,-8.25128 0.22685,0 3.87901,-2.12175 8.11588,-4.71501 4.23687,-2.59326 7.94995,-4.71502 8.25128,-4.71502 0.30133,0 4.0144,-2.12176 8.25128,-4.71502 4.23687,-2.59325 7.97067,-4.71501 8.2973,-4.71501 0.32666,0 2.70428,-1.39659 5.28363,-3.10352 l 4.68975,-3.10352 0.008,-130.97975 0.008,-130.97975 3.23411,-1.86278 c 1.77878,-1.02453 8.53852,-4.94542 15.02167,-8.7131 6.48314,-3.76767 13.90929,-8.04646 16.50255,-9.50845 2.59326,-1.46197 9.48897,-5.44329 15.3238,-8.84736 5.83484,-3.40406 13.79143,-8.03293 17.68131,-10.28638 3.88989,-2.25342 9.4595,-5.4194 12.37692,-7.03549 2.91742,-1.61609 7.69137,-4.38869 10.60879,-6.16134 2.91661,-1.77265 12.99495,-7.62532 22.39552,-13.00593 9.40056,-5.38062 19.52535,-11.29484 22.49952,-13.14274 2.97418,-1.84789 5.68785,-3.35982 6.03037,-3.35982 0.34253,0 10.5782,-5.83483 22.74591,-12.966291 12.1677,-7.131462 22.32774,-12.966294 22.57783,-12.966294 0.25009,0 2.43332,-1.24889 4.85161,-2.775318 2.4183,-1.526427 13.94482,-8.228783 25.61449,-14.894107 11.66966,-6.665323 21.52237,-12.285956 21.89492,-12.490293 0.37253,-0.204318 5.04581,2.254524 10.38506,5.464075 5.33924,3.20957 9.91444,5.835579 10.16711,5.835579 0.25264,0 3.53596,1.853217 7.29623,4.118252 l 6.83687,4.118252 0.58938,79.043935 0.58937,79.04396 20.6282,11.85272 c 11.3455,6.51902 26.59563,15.32298 33.88918,19.56437 l 13.26098,7.71163 0,52.60091 0,52.60092 4.40103,2.33087 c 2.42057,1.28199 13.42719,7.5771 24.45915,13.98919 11.03196,6.41207 22.44509,12.98779 25.3625,14.61272 2.91742,1.62493 6.3507,3.67223 7.62951,4.54956 1.27879,0.87733 3.00272,1.59513 3.83095,1.59513 l 1.50584,0 0,-90.76406 0,-90.76406 -1.01253,0 c -0.55691,0 -10.23742,-5.31584 -21.51226,-11.813 -11.27487,-6.49715 -21.82583,-12.60654 -23.44662,-13.5764 -1.62079,-0.96985 -7.32301,-4.24107 -12.67161,-7.26937 l -9.72472,-5.50598 0,-14.01128 0,-14.01126 6.18846,3.40375 c 3.40365,1.87208 20.2451,11.53819 37.42544,21.48028 17.18034,9.9421 34.68484,20.05567 38.89888,22.47463 l 7.6619,4.39811 0.30061,112.609 0.30058,112.60902 -5.91739,3.641 c -3.25456,2.00254 -6.22535,3.64099 -6.60176,3.64099 -0.37642,0 -2.09239,0.98507 -3.81325,2.18901 -1.72087,1.20396 -5.78105,3.6517 -9.02262,5.43946 -3.24157,1.78773 -12.25904,6.95575 -20.03882,11.48448 -7.77977,4.52871 -17.14242,10.03756 -20.80587,12.24185 -3.66345,2.20431 -6.98923,4.00782 -7.39063,4.00782 -0.40141,0 -2.90769,1.37484 -5.56953,3.0552 -2.66185,1.68033 -11.63118,6.97268 -19.93191,11.76078 -8.30071,4.78808 -17.11891,9.83611 -19.596,11.21781 -2.47711,1.38173 -7.42124,4.2541 -10.98697,6.38307 -3.56573,2.12895 -16.56149,9.67218 -28.87947,16.76274 -12.31798,7.09056 -25.0899,14.39147 -28.38202,16.22424 l -5.98571,3.33229 -9.33809,-5.30105 c -5.13597,-2.91557 -18.35558,-10.50063 -29.37693,-16.85571 -11.02135,-6.35509 -28.79107,-16.5723 -39.48826,-22.7049 -10.69719,-6.13263 -19.97988,-11.55523 -20.62819,-12.05021 -0.64832,-0.495 -3.56573,-2.22065 -6.48315,-3.83478 -2.91742,-1.61413 -12.30892,-6.96783 -20.87004,-11.89713 -8.56107,-4.92927 -17.57854,-10.19252 -20.03881,-11.6961 -2.46024,-1.50356 -6.46233,-3.76762 -8.89351,-5.03122 -2.43118,-1.26359 -4.42032,-2.63163 -4.42032,-3.04007 0,-0.40843 4.35689,-3.33783 9.68197,-6.50978 5.3251,-3.17193 10.62295,-6.1455 11.77302,-6.60788 l 2.09105,-0.84071 15.63301,8.97091 c 8.59816,4.93399 18.55042,10.65206 22.11615,12.70681 3.56573,2.05475 8.72699,5.15925 11.46944,6.89891 2.74245,1.73967 5.19506,3.16301 5.45026,3.16301 0.25518,0 6.49839,3.49772 13.87378,7.77269 7.37538,4.27496 24.01858,13.87499 36.98488,21.33338 12.96629,7.45839 25.23243,14.51229 27.25806,15.67535 l 3.68299,2.11464 13.41289,-7.93511 c 7.37709,-4.3643 20.57204,-12.08852 29.32213,-17.1649 8.75009,-5.0764 19.35709,-11.17058 23.57113,-13.54263 4.21405,-2.37204 14.82284,-8.45801 23.57508,-13.52433 8.75225,-5.06635 17.5045,-10.11737 19.44944,-11.22451 1.94495,-1.10713 12.0233,-6.95243 22.39633,-12.98956 10.37304,-6.03712 20.04903,-11.55324 21.50222,-12.25806 l 2.64214,-1.28148 -0.34329,-1.06001 c -0.1888,-0.58301 -3.76477,-3.01926 -7.94655,-5.41388 -4.18177,-2.3946 -14.23373,-8.20702 -22.33767,-12.91643 -8.10393,-4.70944 -19.36123,-11.18367 -25.01622,-14.38717 l -10.2818,-5.82452 -6.53833,4.18252 c -3.59609,2.30039 -6.7056,4.18251 -6.91002,4.18251 -0.20443,0 -8.54854,4.6917 -18.54248,10.42598 -9.99395,5.73429 -27.14586,15.60266 -38.11537,21.9297 l -19.94456,11.50371 -3.63052,-1.8498 c -1.99679,-1.01738 -6.3911,-3.4316 -9.76515,-5.36492 -3.37407,-1.93333 -15.68324,-9.11275 -27.35375,-15.95426 -11.67051,-6.84152 -21.55859,-12.43913 -21.97349,-12.43913 -0.41492,0 -2.16239,-0.98505 -3.88325,-2.18901 -1.72086,-1.20394 -5.78104,-3.65303 -9.02261,-5.44244 -3.24158,-1.78941 -10.80519,-6.14253 -16.80801,-9.67362 l -10.91424,-6.42018 0.30545,-59.59488 0.30545,-59.59487 7.66191,-4.36379 c 4.21404,-2.4001 14.82283,-8.51725 23.57508,-13.59367 8.75224,-5.0764 20.54053,-11.88683 26.19619,-15.13424 l 10.28302,-5.90439 0.32577,-38.21741 c 0.17917,-21.01956 0.144,-38.3987 -0.0782,-38.6203 -0.22224,-0.22159 -4.20053,1.87156 -8.84066,4.65148 -4.64012,2.77989 -12.14967,7.19032 -16.68787,9.80095 -4.53821,2.61062 -14.88177,8.6412 -22.98571,13.40129 -8.10393,4.7601 -15.7953,9.23483 -17.09193,9.94385 -1.29663,0.70902 -6.60102,3.71351 -11.78754,6.67666 -5.18652,2.96313 -17.38662,10.01324 -27.11134,15.6669 -9.72472,5.65367 -20.06829,11.6152 -22.9857,13.24784 -2.91742,1.63263 -5.96745,3.49286 -6.77784,4.13379 l -1.47344,1.16535 -0.0249,78.53749 -0.025,78.5375 -10.9631,6.18845 c -6.02968,3.40366 -11.3229,6.18846 -11.76273,6.18846 l -0.79953,0 0,-92.24864 0,-92.24864 2.06282,-1.27366 c 1.13455,-0.70051 4.53512,-2.64776 7.55684,-4.32719 3.02169,-1.67941 12.5696,-7.14694 21.21757,-12.15002 8.64795,-5.00311 19.96707,-11.56645 25.15359,-14.5852 5.18651,-3.01875 10.49091,-6.0952 11.78754,-6.83655 1.29663,-0.74134 8.72278,-5.01784 16.50255,-9.5033 7.77978,-4.48545 21.27207,-12.26925 29.98287,-17.29735 8.71081,-5.02809 17.46306,-10.0618 19.44944,-11.18606 1.9864,-1.12423 7.85514,-4.5628 13.04165,-7.64123 5.18652,-3.07843 12.08223,-7.08126 15.32381,-8.89516 3.24157,-1.81391 9.20901,-5.17776 13.26098,-7.47523 l 7.36721,-4.17723 0,66.30974 0,66.30974 -12.08223,7.16789 c -6.64522,3.94232 -14.10291,8.29613 -16.57263,9.67509 -2.46971,1.37897 -8.03932,4.54439 -12.37692,7.03428 -4.33758,2.48988 -11.68062,6.74088 -16.31788,9.44665 -4.63726,2.70577 -9.03845,5.65106 -9.78044,6.54511 l -1.34906,1.62554 0.3504,44.44549 0.35041,44.44549 16.50255,9.48252 c 9.07641,5.21538 23.39827,13.46607 31.82636,18.33483 8.42809,4.86879 18.83786,10.71286 23.13279,12.98685 l 7.80901,4.13452 13.99794,-8.05549 c 7.6989,-4.4305 17.44582,-10.00393 21.65986,-12.38534 4.21405,-2.38144 14.82283,-8.48051 23.57508,-13.5535 8.75225,-5.07296 16.81772,-9.78448 17.92325,-10.47004 l 2.01009,-1.24646 0.078,-44.46814 0.078,-44.46812 -5.24721,-3.61019 c -2.88608,-1.98559 -5.47346,-3.61017 -5.74986,-3.61017 -0.2764,0 -4.95477,-2.56946 -10.39639,-5.70994 -5.44164,-3.14048 -15.38023,-8.97531 -22.08577,-12.96629 -6.70561,-3.99099 -12.43332,-7.25636 -12.7283,-7.25636 -0.29498,0 -3.42829,-1.84993 -6.96286,-4.111 l -6.42653,-4.11098 0,-78.35211 0,-78.352065 -5.17133,-3.030616 -5.17133,-3.030596 -5.73214,3.425204 c -3.15268,1.883865 -16.60615,9.671912 -29.8966,17.30678 -13.29046,7.634843 -26.69202,15.391503 -29.78124,17.236993 -3.08924,1.84552 -5.8846,3.35546 -6.21188,3.35546 -0.32732,0 -2.57371,1.24182 -4.992,2.75957 -2.4183,1.51776 -6.78389,4.11125 -9.70131,5.76329 -2.91741,1.65204 -10.07834,5.79454 -15.91318,9.20554 -5.83483,3.411 -20.95235,12.14012 -33.59448,19.39804 -12.64214,7.25795 -30.14664,17.34458 -38.89889,22.41476 -8.75224,5.07019 -20.36541,11.78251 -25.80705,14.9163 -5.44162,3.13378 -10.26596,5.69777 -10.72078,5.69777 -0.45479,0 -1.70478,0.97003 -2.77774,2.15564 l -1.95082,2.15563 0,116.30915 0,116.30913 0.6128,0 c 0.33704,0 2.71349,-1.3261 5.28097,-2.94688 2.56749,-1.62079 4.95446,-2.94689 5.3044,-2.94689 0.34993,0 2.61483,-1.2418 5.03312,-2.75956 2.41829,-1.51774 6.78389,-4.10134 9.7013,-5.74128 2.91742,-1.63994 10.07835,-5.77953 15.91318,-9.19903 5.83483,-3.41953 14.05664,-8.19785 18.27069,-10.61848 l 7.6619,-4.40115 0.30871,-78.82463 0.30872,-78.82464 3.22755,-1.85512 c 1.77514,-1.02033 10.38847,-6.00676 19.14072,-11.081 8.75225,-5.0742 27.80706,-16.04168 42.34405,-24.37213 14.53696,-8.33047 26.60446,-15.1463 26.81665,-15.1463 0.21218,0 0.3795,6.23266 0.3718,13.85036 l -0.0137,13.85036 -7.32566,4.12563 c -4.02912,2.26911 -9.99028,5.63869 -13.24702,7.48798 -3.25672,1.84929 -13.34746,7.65218 -22.42387,12.89533 -9.0764,5.24316 -18.48734,10.62582 -20.91316,11.96147 l -4.4106,2.42847 0.004,71.90399 0.004,71.904 7.28429,4.12563 c 4.00635,2.26911 9.70228,5.4963 12.65761,7.17154 2.95534,1.67525 11.73861,6.74766 19.51838,11.27206 7.77978,4.52437 23.16252,13.44732 34.18387,19.82876 11.02135,6.38144 21.89535,12.63724 24.16446,13.90175 2.2691,1.26451 9.00271,5.16016 14.96359,8.65701 5.96086,3.49683 11.05654,6.35786 11.3237,6.35786 0.26716,0 4.938,-2.57418 10.37962,-5.72043 5.44164,-3.14623 15.06565,-8.71585 21.38672,-12.37692 6.32107,-3.66105 16.66463,-9.66999 22.9857,-13.35316 6.32107,-3.68317 13.08417,-7.54744 15.02912,-8.58726 1.94494,-1.03982 7.45632,-4.231 12.24753,-7.09152 l 8.71128,-5.20096 4.84439,2.75856 c 2.66441,1.51719 7.61917,4.30844 11.01052,6.20276 3.39139,1.8943 6.46097,3.92122 6.82131,4.50427 l 0.65517,1.06008 -5.05316,3.21629 c -2.77926,1.76895 -8.76625,5.30863 -13.30446,7.86594 -4.5382,2.55731 -10.37303,5.83369 -12.96629,7.28085 -2.59326,1.44715 -9.48897,5.42398 -15.3238,8.83741 -5.83483,3.41344 -15.06102,8.78708 -20.50266,11.94143 -5.44162,3.15436 -10.09597,5.73519 -10.343,5.73519 -0.247,0 -3.80867,2.12175 -7.9148,4.71501 -4.10615,2.59326 -7.72477,4.71502 -8.04138,4.71502 -0.31661,0 -4.99464,2.62833 -10.39559,5.84072 l -9.81994,5.84071 -6.56894,-3.60386 c -3.61249,-1.98214 -15.32078,-8.6553 -26.01797,-14.82926 -10.6972,-6.17396 -22.36686,-12.95875 -25.93259,-15.07732 -3.56573,-2.11856 -8.87012,-5.18285 -11.78754,-6.80951 -2.91742,-1.62666 -13.26098,-7.57941 -22.9857,-13.22829 -9.72472,-5.6489 -20.06829,-11.60652 -22.98571,-13.23917 -2.91741,-1.63264 -5.83483,-3.35765 -6.48314,-3.83335 -0.64832,-0.47571 -4.09617,-2.461 -7.6619,-4.41176 l -6.48315,-3.54684 -20.03882,11.64631 c -11.02135,6.40547 -25.77006,14.91165 -32.77492,18.90264 l -12.7361,7.25633 1.53794,1.44163 c 0.84587,0.79291 12.41194,7.68481 25.70239,15.31534 13.29045,7.63052 25.75578,14.77438 27.70072,15.87522 1.94495,1.10084 9.02262,5.26351 15.72816,9.25041 6.70554,3.98688 12.39841,7.24887 12.65084,7.24887 0.25243,0 3.9255,2.12175 8.16238,4.71501 4.23687,2.59326 7.92631,4.71502 8.19872,4.71502 0.27241,0 6.69862,3.71307 14.28045,8.2513 7.58182,4.5382 13.97075,8.25127 14.1976,8.25127 0.22685,0 3.879,2.12176 8.11588,4.71502 4.23687,2.59326 7.96983,4.71502 8.29546,4.71502 0.32563,0 2.57065,1.24181 4.98894,2.7596 2.41829,1.5178 15.1355,8.94395 28.26041,16.50255 13.12493,7.55863 24.08972,13.74296 24.36618,13.74296 0.27648,0 5.18587,-2.72082 10.90974,-6.04626 5.72389,-3.32543 12.79404,-7.38804 15.71146,-9.02798 2.91741,-1.63994 7.28301,-4.22354 9.7013,-5.74128 2.41829,-1.51776 4.60152,-2.75956 4.85161,-2.75956 0.2501,0 10.41013,-5.83483 22.57784,-12.9663 12.16771,-7.13146 22.30786,-12.96629 22.53365,-12.96629 0.22579,0 3.87708,-2.12178 8.11395,-4.71504 4.23688,-2.59325 7.88817,-4.71501 8.11396,-4.71501 0.22579,0 10.36594,-5.83483 22.53365,-12.9663 12.1677,-7.13146 22.32774,-12.96629 22.57783,-12.96629 0.25009,0 2.43332,-1.2418 4.85161,-2.75956 2.4183,-1.51774 6.78389,-4.10134 9.70131,-5.74128 2.91741,-1.63994 10.07834,-5.7799 15.91318,-9.19988 5.83483,-3.41998 14.05664,-8.19635 18.27068,-10.61415 4.21405,-2.41778 10.04888,-5.73641 12.9663,-7.37472 l 5.30439,-2.97873 0.30005,-124.37006 0.30007,-124.37004 -5.01508,-2.83692 c -2.75829,-1.5603 -17.74561,-10.16854 -33.30517,-19.12943 -15.55955,-8.96087 -33.11913,-19.07983 -39.02131,-22.48654 -5.90218,-3.40672 -12.91997,-7.57572 -15.59508,-9.26444 -2.6751,-1.68872 -5.04443,-3.07042 -5.26514,-3.07042 -0.2207,0 -8.29854,-4.50873 -17.95073,-10.01941 -9.65219,-5.51067 -17.97653,-10.0194 -18.49852,-10.0194 l -0.94909,0 0.31103,37.95163 0.31101,37.95162 7.66191,4.47519 c 4.21404,2.46136 19.46315,11.24204 33.88691,19.51265 l 26.22669,15.03742 0.002,66.30491 0.002,66.30491 -0.61279,0 c -0.33705,0 -2.71348,-1.32609 -5.28098,-2.94688 -2.56748,-1.62079 -4.93595,-2.94689 -5.26325,-2.94689 -0.32731,0 -3.25525,-1.63681 -6.50657,-3.63736 l -5.91171,-3.63737 0,-52.26517 0,-52.26515 -8.88246,-5.39268 c -4.88536,-2.96598 -9.09328,-5.39268 -9.35095,-5.39268 -0.25768,0 -4.65376,-2.51959 -9.76905,-5.59908 -5.11532,-3.0795 -16.2727,-9.57738 -24.79418,-14.43974 l -15.49362,-8.84065 -0.0387,-65.51908 -0.0379,-65.519065 0.751,-0.751004 0.751,-0.751004 3.26191,2.322676 c 1.79406,1.277474 3.71995,2.322676 4.27976,2.322676 0.55983,0 2.86491,1.244528 5.12244,2.765612 2.25751,1.521084 6.57687,4.136365 9.59859,5.811748 3.0217,1.675383 12.37033,7.012621 20.77477,11.860541 8.4044,4.8479 17.45861,10.18921 20.12045,11.86954 2.66184,1.68036 5.12601,3.05518 5.47594,3.05518 0.34993,0 2.61483,1.24181 5.03312,2.75956 2.41829,1.51775 6.78389,4.10889 9.7013,5.75804 2.91742,1.64918 11.30046,6.50743 18.62901,10.79611 7.32853,4.2887 13.61192,7.79762 13.96309,7.79762 0.35115,0 2.04646,0.98575 3.76732,2.19058 1.72086,1.2048 6.04626,3.81413 9.61199,5.79848 3.56573,1.98438 16.56149,9.41585 28.87947,16.51441 l 22.39633,12.90645 0.29976,131.35404 0.29977,131.35406 19.10884,11.13561 c 10.50985,6.12457 19.65765,11.35594 20.32844,11.62522 0.67077,0.26931 4.54418,2.52368 8.60756,5.00971 4.06338,2.48605 7.61086,4.52007 7.88327,4.52007 0.27241,0 6.69862,3.71307 14.28045,8.25127 7.58182,4.53821 13.97075,8.25128 14.1976,8.25128 0.22685,0 3.879,2.12176 8.11588,4.71502 4.23687,2.59326 7.96983,4.71501 8.29546,4.71501 0.32563,0 2.57064,1.24182 4.98894,2.75959 2.41829,1.51774 6.78388,4.10133 9.7013,5.74127 2.91741,1.63995 10.07835,5.77389 15.91318,9.18656 5.83483,3.41265 15.06102,8.78567 20.50266,11.94002 5.44162,3.15436 10.09351,5.7352 10.33751,5.7352 0.244,0 2.42226,1.2418 4.84055,2.75957 2.4183,1.51774 6.78389,4.11123 9.70131,5.76328 2.91741,1.65204 10.07834,5.78764 15.91318,9.19023 5.83483,3.40255 12.46532,7.23468 14.73442,8.51581 2.2691,1.28113 7.70611,4.45121 12.08223,7.04463 l 7.95659,4.71527 0,138.25674 0,138.25675 -6.77784,3.83093 c -3.72781,2.107 -9.16481,5.14605 -12.08223,6.7534 -2.91741,1.60736 -5.83483,3.32532 -6.48314,3.81765 -0.64832,0.49236 -6.48315,3.94356 -12.9663,7.66936 -6.48314,3.72579 -18.41803,10.6038 -26.52196,15.28445 -8.10394,4.68066 -20.03882,11.58004 -26.52197,15.33198 -6.48314,3.75191 -20.53978,11.84671 -31.23698,17.98841 -10.69719,6.1417 -25.54949,14.72936 -33.00511,19.08368 -7.45562,4.35431 -16.6057,9.63376 -20.33351,11.73212 l -6.77783,3.81519 0,-66.56186 0,-66.56184 13.85036,-7.95359 c 7.6177,-4.37447 19.15475,-11.00253 25.6379,-14.729 6.48314,-3.72647 15.50061,-8.96022 20.03882,-11.63057 l 8.25127,-4.85517 0.58938,-52.60799 0.58938,-52.60798 10.94449,-6.31926 c 6.01947,-3.4756 11.19125,-6.31925 11.49285,-6.31925 0.30161,0 0.54836,29.96982 0.54836,66.59961 l 0,66.5996 -1.02479,0 c -0.56364,0 -11.42719,6.10005 -24.14127,13.55567 -12.71404,7.45562 -23.38183,13.55567 -23.70614,13.55567 -0.32434,0 -3.49192,1.85654 -7.03911,4.12564 -3.54718,2.2691 -6.92311,4.12564 -7.5021,4.12564 -0.57896,0 -1.93054,0.97003 -3.0035,2.15562 l -1.95082,2.15565 0,37.33261 0,37.33263 0.65309,0 c 0.3592,0 3.40923,-1.53841 6.77783,-3.4187 3.36861,-1.88029 14.82283,-8.51078 25.45382,-14.73442 10.63099,-6.22365 19.52639,-11.31573 19.76757,-11.31573 0.24115,0 2.41707,-1.24181 4.83536,-2.75958 2.4183,-1.51774 6.89094,-4.14516 9.93916,-5.83868 3.04826,-1.69352 13.75162,-7.86557 23.78527,-13.71567 10.03365,-5.85009 20.00497,-11.62825 22.15847,-12.84034 2.15349,-1.21209 7.09809,-3.96521 10.98798,-6.11805 3.88988,-2.15284 8.00079,-4.70348 9.13534,-5.66812 l 2.06282,-1.75386 0,-123.4783 0,-123.47831 -7.36721,-4.06888 c -4.05197,-2.23789 -9.22375,-5.14581 -11.49286,-6.46203 -2.2691,-1.31625 -8.76698,-5.10353 -14.43973,-8.41622 -5.67276,-3.31268 -14.89894,-8.67524 -20.50266,-11.91681 -5.6037,-3.24158 -10.30651,-5.89377 -10.45069,-5.89377 -0.14421,0 -10.21756,-5.83484 -22.38527,-12.9663 -12.16771,-7.13146 -22.30786,-12.96629 -22.53365,-12.96629 -0.22579,0 -3.87708,-2.12176 -8.11395,-4.71502 -4.23688,-2.59326 -8.01003,-4.71503 -8.38476,-4.71503 -0.37474,0 -2.08934,-0.9878 -3.8102,-2.19514 -1.72086,-1.2073 -10.02456,-6.15753 -18.45265,-11.0005 -8.42809,-4.84295 -17.976,-10.27728 -21.21757,-12.07628 -3.24157,-1.79901 -12.25904,-7.01046 -20.03882,-11.581 -7.77977,-4.57054 -16.67261,-9.81806 -19.76183,-11.66116 -3.08924,-1.8431 -5.89825,-3.3511 -6.24227,-3.3511 -0.34398,0 -7.89478,4.16096 -16.77952,9.24656 -8.88474,5.08562 -23.31501,13.40727 -32.06726,18.49259 -8.75225,5.08532 -19.36103,11.17792 -23.57508,13.53911 -4.21404,2.3612 -14.82283,8.46101 -23.57508,13.55512 -8.75225,5.09414 -29.17416,16.9014 -45.38203,26.23841 -16.20786,9.33701 -36.49717,21.01453 -45.08734,25.95006 -8.59017,4.93552 -15.61849,9.35995 -15.61849,9.83206 0,0.47209 7.27476,5.00597 16.16614,10.07528 8.89138,5.06929 18.5719,10.59543 21.51226,12.28028 2.94037,1.68485 10.09782,5.79576 15.90544,9.13535 5.80764,3.33958 11.0299,6.07197 11.60507,6.07197 0.57515,0 3.78005,-1.52006 7.12197,-3.37793 3.34195,-1.85784 18.27637,-10.42396 33.18761,-19.0358 14.91123,-8.61184 28.96788,-16.69742 31.23698,-17.96796 2.2691,-1.27054 12.13698,-6.99162 21.92863,-12.71351 9.79166,-5.72191 19.76893,-11.50765 22.17172,-12.8572 2.40279,-1.34958 8.10204,-4.56932 12.66504,-7.155 l 8.29633,-4.70124 9.02022,5.13987 c 4.96112,2.82691 12.20285,6.99475 16.09274,9.26185 3.88989,2.2671 14.23345,8.2276 22.9857,13.24556 8.75225,5.01793 16.44362,9.53382 17.09193,10.03528 0.64832,0.50144 3.56573,2.24026 6.48315,3.86404 2.91742,1.62377 12.20327,6.90209 20.63523,11.7296 8.43194,4.82753 16.81359,9.74887 18.62588,10.93634 l 3.29507,2.15901 -0.94457,0.89679 c -0.51952,0.49321 -5.66205,3.59701 -11.42784,6.89729 -5.76578,3.30029 -10.70048,6.00052 -10.96597,6.00052 -0.2655,0 -5.62637,-2.98598 -11.91308,-6.6355 -6.28671,-3.64954 -13.81734,-7.97733 -16.73475,-9.61737 -2.91742,-1.64 -7.28301,-4.22366 -9.7013,-5.7414 -2.4183,-1.51776 -4.60569,-2.75956 -4.86089,-2.75956 -0.25518,0 -6.49839,-3.50342 -13.87378,-7.78532 -7.37538,-4.28194 -18.01317,-10.42016 -23.6395,-13.64048 l -10.2297,-5.85517 -11.57725,6.72032 c -6.36749,3.69618 -13.96422,8.06214 -16.88164,9.70216 -2.91742,1.64 -7.28301,4.22366 -9.7013,5.7414 -2.41829,1.51776 -4.66331,2.75958 -4.98894,2.75958 -0.32563,0 -4.05859,2.12176 -8.29546,4.71502 -4.23688,2.59326 -7.96983,4.71501 -8.29546,4.71501 -0.32563,0 -2.57065,1.2418 -4.98894,2.75956 -2.4183,1.51775 -6.78389,4.09863 -9.70131,5.73525 -2.91741,1.63662 -13.79142,7.91223 -24.16445,13.94578 -10.37304,6.03357 -20.31877,11.71336 -22.10164,12.62176 l -3.24157,1.65167 0.01,72.11236 0.01,72.11236 5.58916,3.02907 c 3.07406,1.66597 14.60665,8.23998 25.628,14.6089 11.02135,6.36891 22.16058,12.84194 24.75383,14.38449 2.59326,1.54256 6.43895,3.68646 8.54597,4.76417 l 3.83095,1.95951 0,13.92672 0,13.92674 -0.67417,0 c -0.37079,0 -2.89038,-1.2724 -5.59908,-2.82753 -2.7087,-1.55515 -14.47282,-8.38874 -26.14248,-15.18577 -11.66967,-6.79705 -23.86977,-13.83663 -27.11135,-15.64354 -3.24157,-1.80691 -11.89482,-6.7756 -19.22944,-11.04151 l -13.33471,-7.7562 -0.22,-78.88697 -0.21999,-78.88695 -9.89802,-5.68865 c -5.44392,-3.12875 -10.09827,-5.68863 -10.343,-5.68863 -0.24473,0 -3.7472,-2.03675 -7.78329,-4.5261 -4.03607,-2.48937 -14.34275,-8.58942 -22.9037,-13.55567 -8.56096,-4.96627 -15.85707,-9.02957 -16.21359,-9.02957 l -0.64821,0 0.30042,116.94027 0.30041,116.94026 18.74421,10.95455 c 10.3093,6.02499 18.93947,10.95454 19.17817,10.95454 0.23868,0 2.41258,1.24179 4.83087,2.75956 2.41829,1.51776 6.89093,4.14516 9.93915,5.83868 3.04826,1.69354 13.75162,7.86559 23.78527,13.71567 10.03366,5.85009 20.00497,11.63059 22.15848,12.84555 2.15348,1.21494 12.40247,7.13617 22.77551,13.15829 10.37303,6.0221 23.3123,13.52738 28.75394,16.67837 5.44161,3.15102 10.01117,5.72912 10.15457,5.72912 0.14341,0 10.19351,5.83483 22.33361,12.96629 12.14009,7.13146 22.30075,12.96629 22.57927,12.96629 0.2785,0 2.65352,1.35543 5.27783,3.01209 l 4.77146,3.01209 5.22452,-3.06177 5.22453,-3.06179 0,-78.64329 0,-78.64328 2.6522,-1.66776 c 1.4587,-0.91729 13.26098,-7.75308 26.22727,-15.19066 12.9663,-7.43759 27.02294,-15.50258 31.23698,-17.92221 l 7.6619,-4.39933 0.30844,-45.43495 0.30844,-45.435 -3.43728,-2.44756 c -1.89051,-1.34618 -3.67712,-2.44757 -3.97024,-2.44757 -0.29314,0 -5.25043,-2.71229 -11.0162,-6.02732 -5.7658,-3.31501 -14.99199,-8.69565 -20.50266,-11.95693 -5.51068,-3.26128 -11.61073,-6.83251 -13.55567,-7.93608 -1.94495,-1.10355 -8.38289,-4.7404 -14.30654,-8.08189 -5.92365,-3.34147 -11.49326,-6.07441 -12.37692,-6.07317 -0.88365,10e-4 -6.01469,2.65343 -11.40234,5.89377 -5.38761,3.24033 -10.03951,5.89153 -10.33751,5.89153 -0.29799,0 -2.52044,1.24179 -4.93873,2.75956 -2.41829,1.51774 -6.78389,4.0902 -9.7013,5.71656 -2.91742,1.62635 -11.13923,6.39085 -18.27069,10.58777 -7.13146,4.19693 -15.48588,9.07298 -18.56537,10.83567 l -5.59909,3.20492 0,45.22034 0,45.22032 5.00971,2.92671 c 2.75534,1.60967 7.39668,4.26136 10.3141,5.89261 2.91741,1.63128 15.91318,9.08859 28.87947,16.57179 l 23.57508,13.60583 0.30447,66.76476 0.30445,66.76477 -3.84071,-2.35818 c -2.11241,-1.297 -10.73645,-6.29981 -19.16454,-11.11738 -8.42809,-4.81755 -20.62819,-11.83327 -27.11134,-15.59049 -6.48315,-3.75722 -18.41803,-10.66093 -26.52196,-15.34158 -8.10394,-4.68066 -20.03882,-11.57944 -26.52197,-15.33064 -6.48315,-3.75117 -21.60067,-12.47051 -33.59449,-19.37626 -11.99382,-6.90577 -27.23725,-15.71321 -33.87426,-19.57213 l -12.06732,-7.01618 -0.0157,-92.2375 -0.0157,-92.2375 0.69253,0 c 0.3809,0 4.22658,1.94771 8.54597,4.32824 4.31939,2.38054 9.31214,5.33408 11.095,6.56342 l 3.24158,2.23516 0.008,78.60155 0.008,78.60158 3.82349,2.18427 c 2.10293,1.20137 6.74092,3.80455 10.30665,5.78487 3.56573,1.98033 8.46176,4.84309 10.88006,6.36168 2.41829,1.51863 4.60152,2.76111 4.85161,2.76111 0.25009,0 10.41013,5.83483 22.57783,12.9663 12.16771,7.13146 22.32775,12.96629 22.57784,12.96629 0.25009,0 2.43332,1.2418 4.85161,2.75956 2.41829,1.51777 6.89094,4.14517 9.93916,5.83868 3.04826,1.69354 13.82364,7.90756 23.94529,13.80897 10.12166,5.90141 19.16469,11.02212 20.09565,11.37936 l 1.69338,0.64953 -0.0157,-38.14094 -0.0157,-38.14093 -11.47745,-6.5567 c -6.31271,-3.60618 -18.63849,-10.72189 -27.39074,-15.81267 -8.75225,-5.09078 -18.8306,-10.91514 -22.39633,-12.94303 l -6.48314,-3.68705 -0.29955,-60.06618 -0.29954,-60.06616 9.72958,-5.46714 c 5.35126,-3.00692 16.36006,-9.32093 24.46399,-14.03114 8.10394,-4.7102 25.078,-14.49737 37.72013,-21.74931 12.64214,-7.25191 24.78382,-14.29125 26.98149,-15.64298 l 3.99579,-2.45769 9.35856,5.80436 c 5.14721,3.19239 9.61612,5.80437 9.93091,5.80437 0.31479,0 6.77064,3.6492 14.34636,8.10935 7.57571,4.46013 22.7915,13.26684 33.81285,19.57046 11.02135,6.30362 20.6834,11.98673 21.47122,12.62911 l 1.4324,1.16801 6.97308,-4.23591 c 3.83517,-2.32975 7.2912,-4.23591 7.68003,-4.23591 0.38886,0 3.5021,-1.77163 6.91835,-3.93694 3.41624,-2.16531 14.83098,-8.83685 25.3661,-14.82562 10.53511,-5.9888 19.15475,-11.05202 19.15475,-11.25164 0,-0.19962 -3.84569,-2.64098 -8.54597,-5.42526 -4.70028,-2.78427 -11.46338,-6.75661 -15.02911,-8.82739 -3.56573,-2.07078 -9.27593,-5.42321 -12.68931,-7.44984 -3.41339,-2.02662 -6.41407,-3.68475 -6.66817,-3.68475 -0.25412,0 -5.68315,-3.09739 -12.06453,-6.8831 -6.38138,-3.7857 -22.2113,-13.0126 -35.17759,-20.50421 -12.9663,-7.49161 -31.46647,-18.18564 -41.1115,-23.7645 -9.64504,-5.57889 -17.78497,-10.1434 -18.08873,-10.1434 -0.30377,0 -2.0929,-1.09701 -3.97584,-2.43778 l -3.42353,-2.43778 -3.24158,2.27142 c -1.78286,1.2493 -10.66772,6.50627 -19.74413,11.68218 -9.0764,5.17589 -23.50708,13.4509 -32.0682,18.38888 -8.56107,4.93797 -17.70062,10.3259 -20.31006,11.97319 -2.60945,1.64727 -5.01087,2.99504 -5.3365,2.99504 -0.32563,0 -4.05859,2.12175 -8.29546,4.71501 -4.23687,2.59326 -7.88319,4.71502 -8.10289,4.71502 -0.21972,0 -5.11693,2.74068 -10.88271,6.09044 -5.7658,3.34973 -14.56412,8.42845 -19.55184,11.28602 l -9.06856,5.19558 -4.46603,-3.03474 c -2.45632,-1.66912 -4.83812,-3.03475 -5.29284,-3.03475 -0.45474,0 -3.51426,-1.6706 -6.7989,-3.71246 -3.28465,-2.04186 -5.97209,-4.03602 -5.97209,-4.43147 0,-0.39547 0.92827,-1.29217 2.06282,-1.99272 1.13455,-0.70053 12.93682,-7.53945 26.22727,-15.19758 13.29045,-7.65815 25.92642,-14.91625 28.07991,-16.12911 2.1535,-1.21285 12.12482,-6.99166 22.15847,-12.84175 10.03365,-5.85008 20.73701,-12.00884 23.78527,-13.68608 3.04822,-1.67725 6.07269,-3.43802 6.721,-3.91282 0.64832,-0.4748 3.67278,-2.23559 6.721,-3.91283 3.04826,-1.67725 13.77272,-7.84829 23.83215,-13.71341 l 18.28986,-10.66388 1.9185,0 c 1.05518,0 3.32648,0.9887 5.04735,2.19708 1.72086,1.2084 7.10714,4.4575 11.9695,7.22021 4.86236,2.76272 11.22763,6.36706 14.14504,8.00965 2.91742,1.64259 7.28301,4.22835 9.70131,5.74609 2.41829,1.51777 4.59472,2.75956 4.8365,2.75956 0.24179,0 7.8111,4.31768 16.82067,9.59484 9.00959,5.27715 30.70292,17.8231 48.20742,27.87989 17.5045,10.05678 33.80497,19.53054 36.22327,21.05279 2.41829,1.52224 4.66331,2.76771 4.98894,2.76771 0.32563,0 4.05858,2.12176 8.29546,4.71502 4.23687,2.59326 7.94502,4.71501 8.24029,4.71501 0.29526,0 4.66205,2.48045 9.70396,5.51213 5.0419,3.03168 10.36058,6.22655 11.81929,7.09972 l 2.65219,1.58754 0,112.45034 0,112.45034 -17.976,10.28177 c -9.88679,5.65495 -20.89341,11.97944 -24.45914,14.05438 -3.56573,2.07494 -15.50062,8.95503 -26.52197,15.2891 -11.02135,6.33404 -20.43664,11.75261 -20.92288,12.04125 l -0.88407,0.5248 0,-13.98008 0,-13.98008 9.07083,-5.24426 c 4.98896,-2.88431 12.32303,-7.10075 16.29795,-9.36985 3.97491,-2.26911 15.00822,-8.63438 24.51847,-14.14505 l 17.29138,-10.01941 0.004,-90.46937 0.006,-90.46937 -0.80849,0 c -0.44466,0 -9.85996,5.24764 -20.92288,11.66141 -11.06292,6.41378 -25.68401,14.85258 -32.49131,18.7529 l -12.37692,7.09148 -0.34196,52.85641 -0.34197,52.85641 -9.08806,5.20396 c -4.99844,2.8622 -12.00549,6.80259 -15.57122,8.75646 -3.56573,1.95386 -14.70496,8.374 -24.75383,14.26701 l -18.27069,10.71454 -0.31082,78.95498 -0.31084,78.95497 -2.63604,1.27681 c -1.44985,0.70224 -7.41002,4.09047 -13.24486,7.52939 -5.83483,3.43891 -12.43866,7.18024 -14.67521,8.31404 l -4.06641,2.06149 -4.18487,-2.6257 c -2.30165,-1.44415 -6.57183,-3.97739 -9.48924,-5.62943 -2.91742,-1.65207 -10.07835,-5.78767 -15.91318,-9.19024 -5.83483,-3.40257 -12.2001,-7.09295 -14.14505,-8.20086 -1.94494,-1.10791 -8.57543,-4.92395 -14.73442,-8.48008 -6.15899,-3.55612 -13.58514,-7.82233 -16.50256,-9.48042 -2.91742,-1.65814 -10.07835,-5.80075 -15.91318,-9.20583 -5.83483,-3.40511 -20.95235,-12.15905 -33.59449,-19.45322 -12.64213,-7.29419 -36.24668,-20.90862 -52.45455,-30.25431 -16.20787,-9.34569 -33.85572,-19.53368 -39.21746,-22.63997 l -9.74861,-5.64781 -1.71031,0.65629 c -0.94069,0.36098 -9.01912,4.84737 -17.95211,9.96975 -8.93299,5.12239 -29.768,17.13745 -46.30003,26.70011 -16.53202,9.56268 -40.40179,23.3511 -53.04393,30.64093 -12.64213,7.2898 -29.99023,17.28882 -38.55134,22.22002 -8.56108,4.9312 -17.70062,10.31359 -20.31007,11.96086 -2.60945,1.64726 -5.01224,2.99503 -5.33956,2.99503 -0.32728,0 -3.12264,1.50773 -6.21188,3.35053 -3.08922,1.84279 -12.77771,7.49305 -21.52996,12.55615 -8.75225,5.0631 -16.1784,9.31272 -16.50255,9.44359 z"
       style="fill:#8f8f8f;fill-opacity:1" />
    <path
       d="m 577.72971,362.05608 -61.94877,35.76614 -61.94876,-35.76614 0,-71.53227 61.94877,-35.76613 61.94876,35.76613 z"
       inkscape:randomized="0"
       inkscape:rounded="0"
       inkscape:flatsided="true"
       sodipodi:arg2="1.0471976"
       sodipodi:arg1="0.52359878"
       sodipodi:r2="61.948765"
       sodipodi:r1="71.532272"
       sodipodi:cy="326.28996"
       sodipodi:cx="515.78096"
       sodipodi:sides="6"
       id="path4271"
       style="fill:#80ab5d;fill-opacity:1;stroke:#5e9531;stroke-width:10.8052454;stroke-miterlimit:4;stroke-dasharray:none;stroke-opacity:1"
       sodipodi:type="star" />
    <path
       d="m 351.43744,754.33956 -61.94876,35.76614 -61.94877,-35.76614 0,-71.53227 61.94877,-35.76614 61.94876,35.76614 z"
       inkscape:randomized="0"
       inkscape:rounded="0"
       inkscape:flatsided="true"
       sodipodi:arg2="1.0471976"
       sodipodi:arg1="0.52359878"
       sodipodi:r2="61.948765"
       sodipodi:r1="71.532272"
       sodipodi:cy="718.57341"
       sodipodi:cx="289.48869"
       sodipodi:sides="6"
       id="path4271-8"
       style="fill:#bf655f;fill-opacity:1;stroke:#ad352d;stroke-width:10.8052454;stroke-miterlimit:4;stroke-dasharray:none;stroke-opacity:1"
       sodipodi:type="star" />
    <path
       d="m 805.7562,754.46474 -61.94877,35.76614 -61.94876,-35.76614 0,-71.53227 61.94876,-35.76613 61.94877,35.76613 z"
       inkscape:randomized="0"
       inkscape:rounded="0"
       inkscape:flatsided="true"
       sodipodi:arg2="1.0471976"
       sodipodi:arg1="0.52359878"
       sodipodi:r2="61.948765"
       sodipodi:r1="71.532272"
       sodipodi:cy="718.69859"
       sodipodi:cx="743.80745"
       sodipodi:sides="6"
       id="path4271-3"
       style="fill:#9e7abe;fill-opacity:1;stroke:#7e4da9;stroke-width:10.8052454;stroke-miterlimit:4;stroke-dasharray:none;stroke-opacity:1"
       sodipodi:type="star" />
  </g>
  <text
     xml:space="preserve"
     style="font-style:normal;font-weight:normal;font-size:40px;line-height:125%;font-family:sans-serif;letter-spacing:0px;word-spacing:0px;fill:#4f4f4f;fill-opacity:1;stroke:none;stroke-width:1px;stroke-linecap:butt;stroke-linejoin:miter;stroke-opacity:1"
     x="1027.0801"
     y="709.29926"
     id="text4300"
     sodipodi:linespacing="125%"><tspan
       sodipodi:role="line"
       id="tspan4302"
       x="1027.0801"
       y="709.29926"
       style="font-style:normal;font-variant:normal;font-weight:normal;font-stretch:normal;font-size:500px;font-family:'DejaVu Sans';-inkscape-font-specification:'DejaVu Sans';fill:#4f4f4f;fill-opacity:1">StochasticSearch</tspan></text>
</svg>
