<?xml version="1.0" encoding="UTF-8" standalone="no"?>
<!-- Created with Inkscape (http://www.inkscape.org/) -->

<svg
   xmlns:dc="http://purl.org/dc/elements/1.1/"
   xmlns:cc="http://creativecommons.org/ns#"
   xmlns:rdf="http://www.w3.org/1999/02/22-rdf-syntax-ns#"
   xmlns:svg="http://www.w3.org/2000/svg"
   xmlns="http://www.w3.org/2000/svg"
   xmlns:sodipodi="http://sodipodi.sourceforge.net/DTD/sodipodi-0.dtd"
   xmlns:inkscape="http://www.inkscape.org/namespaces/inkscape"
   id="svg2"
   version="1.1"
   inkscape:version="0.92.2 5c3e80d, 2017-08-06"
   width="2012.7134"
   height="1793.8369"
   viewBox="0 0 1886.9187 1681.7221"
   sodipodi:docname="logo.svg"
   inkscape:export-filename="/home/phrb/.julia/v0.6/StochasticSearch/img/new-logo.png"
   inkscape:export-xdpi="37.325237"
   inkscape:export-ydpi="37.325237">
  <metadata
     id="metadata8">
    <rdf:RDF>
      <cc:Work
         rdf:about="">
        <dc:format>image/svg+xml</dc:format>
        <dc:type
           rdf:resource="http://purl.org/dc/dcmitype/StillImage" />
        <dc:title></dc:title>
      </cc:Work>
    </rdf:RDF>
  </metadata>
  <defs
     id="defs6" />
  <sodipodi:namedview
     pagecolor="#ffffff"
     bordercolor="#666666"
     borderopacity="1"
     objecttolerance="10"
     gridtolerance="10"
     guidetolerance="10"
     inkscape:pageopacity="0"
     inkscape:pageshadow="2"
     inkscape:window-width="1920"
     inkscape:window-height="1062"
     id="namedview4"
     showgrid="false"
     fit-margin-top="50"
     fit-margin-left="50"
     fit-margin-right="50"
     fit-margin-bottom="50"
     inkscape:zoom="0.33671752"
     inkscape:cx="222.27713"
     inkscape:cy="758.4932"
     inkscape:window-x="0"
     inkscape:window-y="0"
     inkscape:window-maximized="0"
     inkscape:current-layer="text5632"
     showguides="true"
     inkscape:guide-bbox="true"
     inkscape:snap-bbox="true"
     inkscape:bbox-nodes="true"
     inkscape:snap-bbox-edge-midpoints="true"
     inkscape:bbox-paths="true"
     inkscape:snap-global="false" />
  <g
     id="g5628"
     transform="matrix(1,0,0,-1,-771.6253,2254.0258)">
    <g
       id="g5594">
      <path
         style="opacity:1;fill:#80ab5d;fill-opacity:1;stroke:none;stroke-width:7.5;stroke-linecap:square;stroke-linejoin:miter;stroke-miterlimit:4;stroke-dasharray:none;stroke-dashoffset:0;stroke-opacity:1"
         d="m 1964.5056,1297.0076 -0.052,199.2842 -251.4393,-145.1686 0.052,-199.2841 z"
         id="rect4490-5-36"
         inkscape:connector-curvature="0"
         sodipodi:nodetypes="ccccc" />
      <path
         style="opacity:1;fill:#aaaaaa;fill-opacity:1;stroke:none;stroke-width:7.5;stroke-linecap:square;stroke-linejoin:miter;stroke-miterlimit:4;stroke-dasharray:none;stroke-dashoffset:0;stroke-opacity:1"
         d="m 1714.5734,1153.4708 172.5592,99.6871 -251.4394,145.1686 -172.5591,-99.6872 z"
         id="rect4490-6-5"
         inkscape:connector-curvature="0"
         sodipodi:nodetypes="ccccc" />
      <path
         style="opacity:1;fill:#bdbdbd;fill-opacity:1;stroke:none;stroke-width:7.5;stroke-linecap:square;stroke-linejoin:miter;stroke-miterlimit:4;stroke-dasharray:none;stroke-dashoffset:0;stroke-opacity:1"
         d="m 1463.1341,1298.6394 172.6112,-99.5971 v 290.3372 l -172.6112,99.597 z"
         id="rect4490-4"
         inkscape:connector-curvature="0"
         sodipodi:nodetypes="ccccc" />
      <path
         style="opacity:1;fill:#d7d7d7;fill-opacity:1;stroke:none;stroke-width:7.5;stroke-linecap:square;stroke-linejoin:miter;stroke-miterlimit:4;stroke-dasharray:none;stroke-dashoffset:0;stroke-opacity:1"
         d="m 1463.1341,1588.9765 0.052,-199.2842 251.4394,145.1686 -0.052,199.2841 z"
         id="rect4490-3-0"
         inkscape:connector-curvature="0"
         sodipodi:nodetypes="ccccc" />
      <path
         style="opacity:1;fill:#eaeaea;fill-opacity:1;stroke:none;stroke-width:7.49999952;stroke-linecap:square;stroke-linejoin:miter;stroke-miterlimit:4;stroke-dasharray:none;stroke-dashoffset:0;stroke-opacity:1"
         d="m 1793.4536,1489.2894 172.5592,99.6871 -251.4394,145.1685 -172.5591,-99.6871 z"
         id="rect4490-1-1"
         inkscape:connector-curvature="0"
         sodipodi:nodetypes="ccccc" />
    </g>
    <g
       id="g5608">
      <path
         style="opacity:1;fill:#bf655f;fill-opacity:1;stroke:none;stroke-width:7.5;stroke-linecap:square;stroke-linejoin:miter;stroke-miterlimit:4;stroke-dasharray:none;stroke-dashoffset:0;stroke-opacity:1"
         d="m 1191.9086,1773.7661 172.6112,-99.5971 v 290.3372 l -172.6111,99.597 z"
         id="rect4490-5-36-0"
         inkscape:connector-curvature="0"
         sodipodi:nodetypes="ccccc" />
      <path
         style="opacity:1;fill:#aaaaaa;fill-opacity:1;stroke:none;stroke-width:7.5;stroke-linecap:square;stroke-linejoin:miter;stroke-miterlimit:4;stroke-dasharray:none;stroke-dashoffset:0;stroke-opacity:1"
         d="m 1192.5682,2061.9821 0.052,-199.2841 251.4393,145.1685 -0.052,199.2842 z"
         id="rect4490-6-5-3"
         inkscape:connector-curvature="0"
         sodipodi:nodetypes="ccccc" />
      <path
         style="opacity:1;fill:#bdbdbd;fill-opacity:1;stroke:none;stroke-width:7.5;stroke-linecap:square;stroke-linejoin:miter;stroke-miterlimit:4;stroke-dasharray:none;stroke-dashoffset:0;stroke-opacity:1"
         d="m 1444.0075,2207.1507 -172.5591,-99.6872 251.4393,-145.1685 172.5591,99.6871 z"
         id="rect4490-4-6"
         inkscape:connector-curvature="0"
         sodipodi:nodetypes="ccccc" />
      <path
         style="opacity:1;fill:#d7d7d7;fill-opacity:1;stroke:none;stroke-width:7.5;stroke-linecap:square;stroke-linejoin:miter;stroke-miterlimit:4;stroke-dasharray:none;stroke-dashoffset:0;stroke-opacity:1"
         d="m 1695.4468,2061.9821 -172.6111,99.597 V 1871.242 l 172.6111,-99.597 z"
         id="rect4490-3-0-2"
         inkscape:connector-curvature="0"
         sodipodi:nodetypes="ccccc" />
      <path
         style="opacity:1;fill:#eaeaea;fill-opacity:1;stroke:none;stroke-width:7.49999952;stroke-linecap:square;stroke-linejoin:miter;stroke-miterlimit:4;stroke-dasharray:none;stroke-dashoffset:0;stroke-opacity:1"
         d="m 1443.9555,1825.7606 0.052,-199.2842 251.4393,145.1686 -0.052,199.2841 z"
         id="rect4490-1-1-6"
         inkscape:connector-curvature="0"
         sodipodi:nodetypes="ccccc" />
    </g>
    <g
       id="g5601">
      <path
         style="opacity:1;fill:#9e7abe;fill-opacity:1;stroke:none;stroke-width:7.5;stroke-linecap:square;stroke-linejoin:miter;stroke-miterlimit:4;stroke-dasharray:none;stroke-dashoffset:0;stroke-opacity:1"
         d="m 1986.5528,2206.6613 -172.5592,-99.6872 251.4394,-145.1685 172.5591,99.6871 z"
         id="rect4490-5-36-5"
         inkscape:connector-curvature="0"
         sodipodi:nodetypes="ccccc" />
      <path
         style="opacity:1;fill:#aaaaaa;fill-opacity:1;stroke:none;stroke-width:7.5;stroke-linecap:square;stroke-linejoin:miter;stroke-miterlimit:4;stroke-dasharray:none;stroke-dashoffset:0;stroke-opacity:1"
         d="m 2235.8254,2061.9821 -172.6111,99.597 V 1871.242 l 172.6111,-99.597 z"
         id="rect4490-6-5-37"
         inkscape:connector-curvature="0"
         sodipodi:nodetypes="ccccc" />
      <path
         style="opacity:1;fill:#bdbdbd;fill-opacity:1;stroke:none;stroke-width:7.5;stroke-linecap:square;stroke-linejoin:miter;stroke-miterlimit:4;stroke-dasharray:none;stroke-dashoffset:0;stroke-opacity:1"
         d="m 2235.8254,1771.645 -0.052,199.2841 -251.4393,-145.1686 0.052,-199.2841 z"
         id="rect4490-4-69"
         inkscape:connector-curvature="0"
         sodipodi:nodetypes="ccccc" />
      <path
         style="opacity:1;fill:#d7d7d7;fill-opacity:1;stroke:none;stroke-width:7.5;stroke-linecap:square;stroke-linejoin:miter;stroke-miterlimit:4;stroke-dasharray:none;stroke-dashoffset:0;stroke-opacity:1"
         d="m 1984.3861,1626.4764 172.5591,99.6871 -251.4393,145.1686 -172.5591,-99.6871 z"
         id="rect4490-3-0-4"
         inkscape:connector-curvature="0"
         sodipodi:nodetypes="ccccc" />
      <path
         style="opacity:1;fill:#eaeaea;fill-opacity:1;stroke:none;stroke-width:7.49999952;stroke-linecap:square;stroke-linejoin:miter;stroke-miterlimit:4;stroke-dasharray:none;stroke-dashoffset:0;stroke-opacity:1"
         d="m 1905.5579,1962.385 -172.6111,99.5971 v -290.3372 l 172.6111,-99.597 z"
         id="rect4490-1-1-2"
         inkscape:connector-curvature="0"
         sodipodi:nodetypes="ccccc" />
    </g>
  </g>
  <g
     aria-label="OPAL"
     style="font-style:normal;font-variant:normal;font-weight:normal;font-stretch:normal;font-size:37.5px;line-height:221.90625px;font-family:'TeX Gyre Schola';-inkscape-font-specification:'TeX Gyre Schola';letter-spacing:0px;word-spacing:0px;fill:#6b85dd;fill-opacity:1;stroke:#6b85dd;stroke-width:5.625;stroke-linecap:butt;stroke-linejoin:miter;stroke-miterlimit:4;stroke-dasharray:none;stroke-opacity:1"
     id="text5632">
    <path
       d="m 600.46503,1206.1134 c -52.25,0 -92.625,39.6625 -92.625,90.9625 0,50.825 40.85,90.725 92.3875,90.725 51.0625,0 90.4875,-39.6625 90.4875,-90.725 0,-50.5875 -40.1375,-90.9625 -90.25,-90.9625 z m -0.475,31.35 c 32.5375,0 57.95,26.125 57.95,59.85 0,33.9625 -24.7,59.1375 -57.95,59.1375 -33.25,0 -59.375,-26.125 -59.375,-59.375 0,-33.9625 25.65,-59.6125 59.375,-59.6125 z"
       style="font-style:normal;font-variant:normal;font-weight:bold;font-stretch:normal;font-size:237.5px;line-height:0px;font-family:'URW Gothic';-inkscape-font-specification:'URW Gothic';text-align:center;letter-spacing:93.75px;text-anchor:middle;fill:#6b85dd;fill-opacity:1;fill-rule:nonzero;stroke:#6b85dd;stroke-width:5.625;stroke-miterlimit:4;stroke-dasharray:none;stroke-opacity:1"
       id="path835" />
    <path
       d="m 811.00565,1384.7134 h 32.5375 v -66.7375 h 10.45 c 24.9375,0 36.3375,-1.9 46.075,-7.8375 14.25,-9.025 23.0375,-26.6 23.0375,-46.7875 0,-20.1875 -8.55,-36.8125 -23.75,-46.075 -9.975,-5.9375 -21.85,-8.075 -44.8875,-8.075 h -43.4625 z m 32.5375,-97.85 v -46.55 h 10.925 c 10.6875,0 15.675,0.475 20.6625,1.6625 9.5,2.6125 15.2,10.925 15.2,21.85 0,8.55 -3.8,15.2 -10.6875,19 -4.9875,2.6125 -13.775,4.0375 -26.6,4.0375 z"
       style="font-style:normal;font-variant:normal;font-weight:bold;font-stretch:normal;font-size:237.5px;line-height:0px;font-family:'URW Gothic';-inkscape-font-specification:'URW Gothic';text-align:center;letter-spacing:93.75px;text-anchor:middle;fill:#6b85dd;fill-opacity:1;fill-rule:nonzero;stroke:#6b85dd;stroke-width:5.625;stroke-miterlimit:4;stroke-dasharray:none;stroke-opacity:1"
       id="path837" />
    <path
       d="m 1008.5543,1384.7134 h 35.8625 l 19.475,-45.3625 h 62.4625 l 18.7625,45.3625 h 35.8625 l -73.625,-175.5125 h -25.65 z m 67.2125,-76.475 18.7625,-53.2 18.7625,53.2 z"
       style="font-style:normal;font-variant:normal;font-weight:bold;font-stretch:normal;font-size:237.5px;line-height:0px;font-family:'URW Gothic';-inkscape-font-specification:'URW Gothic';text-align:center;letter-spacing:93.75px;text-anchor:middle;fill:#6b85dd;fill-opacity:1;fill-rule:nonzero;stroke:#6b85dd;stroke-width:5.625;stroke-miterlimit:4;stroke-dasharray:none;stroke-opacity:1"
       id="path839" />
    <path
       d="m 1292.5974,1384.7134 h 86.2125 v -31.1125 h -53.675 v -144.4 h -32.5375 z"
       style="font-style:normal;font-variant:normal;font-weight:bold;font-stretch:normal;font-size:237.5px;line-height:0px;font-family:'URW Gothic';-inkscape-font-specification:'URW Gothic';text-align:center;letter-spacing:93.75px;text-anchor:middle;fill:#6b85dd;fill-opacity:1;fill-rule:nonzero;stroke:#6b85dd;stroke-width:5.625;stroke-miterlimit:4;stroke-dasharray:none;stroke-opacity:1"
       id="path841" />
  </g>
  <g
     aria-label="Open Parallel Autotuning Library"
     style="font-style:normal;font-variant:normal;font-weight:normal;font-stretch:normal;font-size:37.5px;line-height:221.90625px;font-family:'TeX Gyre Schola';-inkscape-font-specification:'TeX Gyre Schola';letter-spacing:0px;word-spacing:0px;fill:#575757;fill-opacity:1;stroke:#6b85dd;stroke-width:5.625;stroke-linecap:butt;stroke-linejoin:miter;stroke-miterlimit:4;stroke-dasharray:none;stroke-opacity:1"
     id="text5632-3">
    <path
       d="m 94.403088,1517.0309 c -25.3,0 -44.85,19.205 -44.85,44.045 0,24.61 19.78,43.93 44.735,43.93 24.725002,0 43.815002,-19.205 43.815002,-43.93 0,-24.495 -19.435,-44.045 -43.700002,-44.045 z m -0.23,15.18 c 15.755002,0 28.060002,12.65 28.060002,28.98 0,16.445 -11.96,28.635 -28.060002,28.635 -16.1,0 -28.75,-12.65 -28.75,-28.75 0,-16.445 12.42,-28.865 28.75,-28.865 z"
       style="font-style:normal;font-variant:normal;font-weight:bold;font-stretch:normal;font-size:115px;line-height:0px;font-family:'URW Gothic';-inkscape-font-specification:'URW Gothic';text-align:center;text-anchor:middle;fill:#575757;fill-opacity:1;fill-rule:nonzero;stroke:none;stroke-width:5.625;stroke-miterlimit:4;stroke-dasharray:none;stroke-opacity:1"
       id="path844" />
    <path
       d="m 148.89512,1624.7859 h 15.295 v -27.255 c 5.865,5.175 11.73,7.475 19.55,7.475 18.4,0 31.855,-14.26 31.855,-33.58 0,-19.205 -13.34,-33.12 -31.625,-33.12 -8.74,0 -16.1,3.105 -21.045,8.97 v -7.475 h -14.03 z m 33.005,-72.45 c 10.35,0 18.285,8.395 18.285,19.435 0,10.81 -7.935,19.205 -18.055,19.205 -10.81,0 -18.86,-8.28 -18.86,-19.435 0,-10.925 8.05,-19.205 18.63,-19.205 z"
       style="font-style:normal;font-variant:normal;font-weight:bold;font-stretch:normal;font-size:115px;line-height:0px;font-family:'URW Gothic';-inkscape-font-specification:'URW Gothic';text-align:center;text-anchor:middle;fill:#575757;fill-opacity:1;fill-rule:nonzero;stroke:none;stroke-width:5.625;stroke-miterlimit:4;stroke-dasharray:none;stroke-opacity:1"
       id="path846" />
    <path
       d="m 287.94809,1578.4409 c 0.46,-2.3 0.575,-3.68 0.575,-5.98 0,-19.665 -13.915,-34.155 -32.89,-34.155 -18.745,0 -33.58,14.835 -33.58,33.58 0,18.63 15.065,33.12 34.5,33.12 10.465,0 18.63,-3.795 25.3,-11.5 2.415,-2.99 4.025,-5.635 5.06,-8.855 h -16.675 c -3.91,4.6 -7.705,6.325 -14.03,6.325 -9.085,0 -15.755,-4.83 -17.595,-12.535 z m -49.795,-13.455 c 2.415,-8.28 8.625,-12.65 17.71,-12.65 9.43,0 15.64,4.485 17.595,12.65 z"
       style="font-style:normal;font-variant:normal;font-weight:bold;font-stretch:normal;font-size:115px;line-height:0px;font-family:'URW Gothic';-inkscape-font-specification:'URW Gothic';text-align:center;text-anchor:middle;fill:#575757;fill-opacity:1;fill-rule:nonzero;stroke:none;stroke-width:5.625;stroke-miterlimit:4;stroke-dasharray:none;stroke-opacity:1"
       id="path848" />
    <path
       d="m 298.48496,1603.5109 h 15.295 v -30.015 c 0,-8.51 0.575,-12.19 2.53,-15.295 2.415,-3.795 6.325,-5.865 11.27,-5.865 4.025,0 7.13,1.38 9.2,4.025 2.07,2.76 2.99,7.475 2.99,15.985 v 31.165 h 15.295 v -34.155 c 0,-11.385 -1.15,-16.905 -4.6,-21.85 -4.14,-5.98 -11.04,-9.2 -19.895,-9.2 -7.36,0 -12.305,2.07 -17.94,7.59 v -6.095 h -14.145 z"
       style="font-style:normal;font-variant:normal;font-weight:bold;font-stretch:normal;font-size:115px;line-height:0px;font-family:'URW Gothic';-inkscape-font-specification:'URW Gothic';text-align:center;text-anchor:middle;fill:#575757;fill-opacity:1;fill-rule:nonzero;stroke:none;stroke-width:5.625;stroke-miterlimit:4;stroke-dasharray:none;stroke-opacity:1"
       id="path850" />
    <path
       d="m 401.16918,1603.5109 h 15.755 v -32.315 h 5.06 c 12.075,0 17.595,-0.92 22.31,-3.795 6.9,-4.37 11.155,-12.88 11.155,-22.655 0,-9.775 -4.14,-17.825 -11.5,-22.31 -4.83,-2.875 -10.58,-3.91 -21.735,-3.91 h -21.045 z m 15.755,-47.38 v -22.54 h 5.29 c 5.175,0 7.59,0.23 10.005,0.805 4.6,1.265 7.36,5.29 7.36,10.58 0,4.14 -1.84,7.36 -5.175,9.2 -2.415,1.265 -6.67,1.955 -12.88,1.955 z"
       style="font-style:normal;font-variant:normal;font-weight:bold;font-stretch:normal;font-size:115px;line-height:0px;font-family:'URW Gothic';-inkscape-font-specification:'URW Gothic';text-align:center;text-anchor:middle;fill:#575757;fill-opacity:1;fill-rule:nonzero;stroke:none;stroke-width:5.625;stroke-miterlimit:4;stroke-dasharray:none;stroke-opacity:1"
       id="path852" />
    <path
       d="m 526.7402,1539.8009 h -14.03 v 8.51 c -5.29,-7.015 -11.615,-10.005 -20.815,-10.005 -18.86,0 -32.43,14.145 -32.43,33.58 0,19.205 13.455,33.12 32.085,33.12 8.97,0 15.065,-2.76 21.16,-9.775 v 8.28 h 14.03 z m -33.235,12.535 c 10.925,0 18.745,8.165 18.745,19.78 0,4.6 -1.84,9.89 -4.6,13.11 -3.105,3.795 -8.05,5.75 -13.915,5.75 -11.155,0 -18.86,-7.59 -18.86,-18.745 0,-11.615 7.705,-19.895 18.63,-19.895 z"
       style="font-style:normal;font-variant:normal;font-weight:bold;font-stretch:normal;font-size:115px;line-height:0px;font-family:'URW Gothic';-inkscape-font-specification:'URW Gothic';text-align:center;text-anchor:middle;fill:#575757;fill-opacity:1;fill-rule:nonzero;stroke:none;stroke-width:5.625;stroke-miterlimit:4;stroke-dasharray:none;stroke-opacity:1"
       id="path854" />
    <path
       d="m 538.14317,1603.5109 h 15.295 v -35.42 c -0.345,-9.43 4.485,-14.72 13.685,-15.065 v -14.72 h -1.15 c -6.555,0 -9.775,1.84 -13.8,7.705 v -6.21 h -14.03 z"
       style="font-style:normal;font-variant:normal;font-weight:bold;font-stretch:normal;font-size:115px;line-height:0px;font-family:'URW Gothic';-inkscape-font-specification:'URW Gothic';text-align:center;text-anchor:middle;fill:#575757;fill-opacity:1;fill-rule:nonzero;stroke:none;stroke-width:5.625;stroke-miterlimit:4;stroke-dasharray:none;stroke-opacity:1"
       id="path856" />
    <path
       d="m 637.69723,1539.8009 h -14.03 v 8.51 c -5.29,-7.015 -11.615,-10.005 -20.815,-10.005 -18.86,0 -32.43,14.145 -32.43,33.58 0,19.205 13.455,33.12 32.085,33.12 8.97,0 15.065,-2.76 21.16,-9.775 v 8.28 h 14.03 z m -33.235,12.535 c 10.925,0 18.745,8.165 18.745,19.78 0,4.6 -1.84,9.89 -4.6,13.11 -3.105,3.795 -8.05,5.75 -13.915,5.75 -11.155,0 -18.86,-7.59 -18.86,-18.745 0,-11.615 7.705,-19.895 18.63,-19.895 z"
       style="font-style:normal;font-variant:normal;font-weight:bold;font-stretch:normal;font-size:115px;line-height:0px;font-family:'URW Gothic';-inkscape-font-specification:'URW Gothic';text-align:center;text-anchor:middle;fill:#575757;fill-opacity:1;fill-rule:nonzero;stroke:none;stroke-width:5.625;stroke-miterlimit:4;stroke-dasharray:none;stroke-opacity:1"
       id="path858" />
    <path
       d="m 649.1002,1603.5109 h 15.295 v -84.985 h -15.295 z"
       style="font-style:normal;font-variant:normal;font-weight:bold;font-stretch:normal;font-size:115px;line-height:0px;font-family:'URW Gothic';-inkscape-font-specification:'URW Gothic';text-align:center;text-anchor:middle;fill:#575757;fill-opacity:1;fill-rule:nonzero;stroke:none;stroke-width:5.625;stroke-miterlimit:4;stroke-dasharray:none;stroke-opacity:1"
       id="path860" />
    <path
       d="m 676.72715,1603.5109 h 15.295 v -84.985 h -15.295 z"
       style="font-style:normal;font-variant:normal;font-weight:bold;font-stretch:normal;font-size:115px;line-height:0px;font-family:'URW Gothic';-inkscape-font-specification:'URW Gothic';text-align:center;text-anchor:middle;fill:#575757;fill-opacity:1;fill-rule:nonzero;stroke:none;stroke-width:5.625;stroke-miterlimit:4;stroke-dasharray:none;stroke-opacity:1"
       id="path862" />
    <path
       d="m 767.4891,1578.4409 c 0.46,-2.3 0.575,-3.68 0.575,-5.98 0,-19.665 -13.915,-34.155 -32.89,-34.155 -18.745,0 -33.58,14.835 -33.58,33.58 0,18.63 15.065,33.12 34.5,33.12 10.465,0 18.63,-3.795 25.3,-11.5 2.415,-2.99 4.025,-5.635 5.06,-8.855 h -16.675 c -3.91,4.6 -7.705,6.325 -14.03,6.325 -9.085,0 -15.755,-4.83 -17.595,-12.535 z m -49.795,-13.455 c 2.415,-8.28 8.625,-12.65 17.71,-12.65 9.43,0 15.64,4.485 17.595,12.65 z"
       style="font-style:normal;font-variant:normal;font-weight:bold;font-stretch:normal;font-size:115px;line-height:0px;font-family:'URW Gothic';-inkscape-font-specification:'URW Gothic';text-align:center;text-anchor:middle;fill:#575757;fill-opacity:1;fill-rule:nonzero;stroke:none;stroke-width:5.625;stroke-miterlimit:4;stroke-dasharray:none;stroke-opacity:1"
       id="path864" />
    <path
       d="m 778.25059,1603.5109 h 15.295 v -84.985 h -15.295 z"
       style="font-style:normal;font-variant:normal;font-weight:bold;font-stretch:normal;font-size:115px;line-height:0px;font-family:'URW Gothic';-inkscape-font-specification:'URW Gothic';text-align:center;text-anchor:middle;fill:#575757;fill-opacity:1;fill-rule:nonzero;stroke:none;stroke-width:5.625;stroke-miterlimit:4;stroke-dasharray:none;stroke-opacity:1"
       id="path866" />
    <path
       d="m 832.59168,1603.5109 h 17.365 l 9.43,-21.965 h 30.245 l 9.085,21.965 h 17.365 l -35.65,-84.985 h -12.42 z m 32.545,-37.03 9.085,-25.76 9.085,25.76 z"
       style="font-style:normal;font-variant:normal;font-weight:bold;font-stretch:normal;font-size:115px;line-height:0px;font-family:'URW Gothic';-inkscape-font-specification:'URW Gothic';text-align:center;text-anchor:middle;fill:#575757;fill-opacity:1;fill-rule:nonzero;stroke:none;stroke-width:5.625;stroke-miterlimit:4;stroke-dasharray:none;stroke-opacity:1"
       id="path868" />
    <path
       d="m 978.02176,1539.8009 h -15.295 v 30.015 c 0,8.51 -0.575,12.535 -2.415,15.295 -2.185,3.795 -6.44,5.865 -11.615,5.865 -3.91,0 -6.9,-1.265 -8.97,-4.025 -2.185,-2.76 -3.105,-7.36 -3.105,-15.985 v -31.165 h -15.295 v 34.155 c 0,10.81 1.265,16.445 4.83,21.62 4.255,6.095 11.04,9.43 19.435,9.43 7.705,0 12.42,-1.955 18.285,-7.59 v 6.095 h 14.145 z"
       style="font-style:normal;font-variant:normal;font-weight:bold;font-stretch:normal;font-size:115px;line-height:0px;font-family:'URW Gothic';-inkscape-font-specification:'URW Gothic';text-align:center;text-anchor:middle;fill:#575757;fill-opacity:1;fill-rule:nonzero;stroke:none;stroke-width:5.625;stroke-miterlimit:4;stroke-dasharray:none;stroke-opacity:1"
       id="path870" />
    <path
       d="m 992.58184,1603.5109 h 15.29496 v -49.795 h 9.2 v -13.915 h -9.2 v -21.275 h -15.29496 v 21.275 h -7.475 v 13.915 h 7.475 z"
       style="font-style:normal;font-variant:normal;font-weight:bold;font-stretch:normal;font-size:115px;line-height:0px;font-family:'URW Gothic';-inkscape-font-specification:'URW Gothic';text-align:center;text-anchor:middle;fill:#575757;fill-opacity:1;fill-rule:nonzero;stroke:none;stroke-width:5.625;stroke-miterlimit:4;stroke-dasharray:none;stroke-opacity:1"
       id="path872" />
    <path
       d="m 1054.459,1538.3059 c -18.515,0 -33.695,15.065 -33.695,33.35 0,18.4 15.18,33.35 33.81,33.35 18.515,0 33.925,-14.95 33.925,-32.89 0,-18.975 -14.835,-33.81 -34.04,-33.81 z m 0.115,14.03 c 10.235,0 18.515,8.625 18.515,19.32 0,10.695 -8.28,19.32 -18.4,19.32 -10.35,0 -18.515,-8.625 -18.515,-19.55 0,-10.465 8.28,-19.09 18.4,-19.09 z"
       style="font-style:normal;font-variant:normal;font-weight:bold;font-stretch:normal;font-size:115px;line-height:0px;font-family:'URW Gothic';-inkscape-font-specification:'URW Gothic';text-align:center;text-anchor:middle;fill:#575757;fill-opacity:1;fill-rule:nonzero;stroke:none;stroke-width:5.625;stroke-miterlimit:4;stroke-dasharray:none;stroke-opacity:1"
       id="path874" />
    <path
       d="m 1099.7205,1603.5109 h 15.295 v -49.795 h 9.2 v -13.915 h -9.2 v -21.275 h -15.295 v 21.275 h -7.475 v 13.915 h 7.475 z"
       style="font-style:normal;font-variant:normal;font-weight:bold;font-stretch:normal;font-size:115px;line-height:0px;font-family:'URW Gothic';-inkscape-font-specification:'URW Gothic';text-align:center;text-anchor:middle;fill:#575757;fill-opacity:1;fill-rule:nonzero;stroke:none;stroke-width:5.625;stroke-miterlimit:4;stroke-dasharray:none;stroke-opacity:1"
       id="path876" />
    <path
       d="m 1188.93,1539.8009 h -15.295 v 30.015 c 0,8.51 -0.575,12.535 -2.415,15.295 -2.185,3.795 -6.44,5.865 -11.615,5.865 -3.91,0 -6.9,-1.265 -8.97,-4.025 -2.185,-2.76 -3.105,-7.36 -3.105,-15.985 v -31.165 h -15.295 v 34.155 c 0,10.81 1.265,16.445 4.83,21.62 4.255,6.095 11.04,9.43 19.435,9.43 7.705,0 12.42,-1.955 18.285,-7.59 v 6.095 h 14.145 z"
       style="font-style:normal;font-variant:normal;font-weight:bold;font-stretch:normal;font-size:115px;line-height:0px;font-family:'URW Gothic';-inkscape-font-specification:'URW Gothic';text-align:center;text-anchor:middle;fill:#575757;fill-opacity:1;fill-rule:nonzero;stroke:none;stroke-width:5.625;stroke-miterlimit:4;stroke-dasharray:none;stroke-opacity:1"
       id="path878" />
    <path
       d="m 1201.19,1603.5109 h 15.295 v -30.015 c 0,-8.51 0.575,-12.19 2.53,-15.295 2.415,-3.795 6.325,-5.865 11.27,-5.865 4.025,0 7.13,1.38 9.2,4.025 2.07,2.76 2.99,7.475 2.99,15.985 v 31.165 h 15.295 v -34.155 c 0,-11.385 -1.15,-16.905 -4.6,-21.85 -4.14,-5.98 -11.04,-9.2 -19.895,-9.2 -7.36,0 -12.305,2.07 -17.94,7.59 v -6.095 h -14.145 z"
       style="font-style:normal;font-variant:normal;font-weight:bold;font-stretch:normal;font-size:115px;line-height:0px;font-family:'URW Gothic';-inkscape-font-specification:'URW Gothic';text-align:center;text-anchor:middle;fill:#575757;fill-opacity:1;fill-rule:nonzero;stroke:none;stroke-width:5.625;stroke-miterlimit:4;stroke-dasharray:none;stroke-opacity:1"
       id="path880" />
    <path
       d="m 1270.1451,1603.5109 h 15.295 v -63.71 h -15.295 z m 0,-70.61 h 15.295 v -14.375 h -15.295 z"
       style="font-style:normal;font-variant:normal;font-weight:bold;font-stretch:normal;font-size:115px;line-height:0px;font-family:'URW Gothic';-inkscape-font-specification:'URW Gothic';text-align:center;text-anchor:middle;fill:#575757;fill-opacity:1;fill-rule:nonzero;stroke:none;stroke-width:5.625;stroke-miterlimit:4;stroke-dasharray:none;stroke-opacity:1"
       id="path882" />
    <path
       d="m 1297.7721,1603.5109 h 15.295 v -30.015 c 0,-8.51 0.575,-12.19 2.53,-15.295 2.415,-3.795 6.325,-5.865 11.27,-5.865 4.025,0 7.13,1.38 9.2,4.025 2.07,2.76 2.99,7.475 2.99,15.985 v 31.165 h 15.295 v -34.155 c 0,-11.385 -1.15,-16.905 -4.6,-21.85 -4.14,-5.98 -11.04,-9.2 -19.895,-9.2 -7.36,0 -12.305,2.07 -17.94,7.59 v -6.095 h -14.145 z"
       style="font-style:normal;font-variant:normal;font-weight:bold;font-stretch:normal;font-size:115px;line-height:0px;font-family:'URW Gothic';-inkscape-font-specification:'URW Gothic';text-align:center;text-anchor:middle;fill:#575757;fill-opacity:1;fill-rule:nonzero;stroke:none;stroke-width:5.625;stroke-miterlimit:4;stroke-dasharray:none;stroke-opacity:1"
       id="path884" />
    <path
       d="m 1416.1772,1539.8009 v 8.05 c -4.83,-6.44 -11.615,-9.545 -20.815,-9.545 -18.055,0 -31.395,14.03 -31.395,32.89 0,19.665 13.11,33.81 31.28,33.81 8.97,0 14.95,-2.875 20.93,-9.89 -0.575,13.685 -6.44,20.355 -17.825,20.355 -7.13,0 -11.5,-1.84 -15.985,-6.785 h -17.365 c 5.175,12.765 17.135,20.24 32.775,20.24 11.5,0 20.585,-4.025 26.565,-11.615 4.485,-5.865 6.44,-13.685 6.44,-25.875 v -51.635 z m -19.09,12.535 c 10.925,0 18.4,7.82 18.4,19.55 0,11.5 -7.13,19.09 -18.17,19.09 -10.925,0 -17.94,-7.475 -17.94,-19.09 0,-11.73 7.015,-19.55 17.71,-19.55 z"
       style="font-style:normal;font-variant:normal;font-weight:bold;font-stretch:normal;font-size:115px;line-height:0px;font-family:'URW Gothic';-inkscape-font-specification:'URW Gothic';text-align:center;text-anchor:middle;fill:#575757;fill-opacity:1;fill-rule:nonzero;stroke:none;stroke-width:5.625;stroke-miterlimit:4;stroke-dasharray:none;stroke-opacity:1"
       id="path886" />
    <path
       d="m 1476.3743,1603.5109 h 41.745 v -15.065 h -25.99 v -69.92 h -15.755 z"
       style="font-style:normal;font-variant:normal;font-weight:bold;font-stretch:normal;font-size:115px;line-height:0px;font-family:'URW Gothic';-inkscape-font-specification:'URW Gothic';text-align:center;text-anchor:middle;fill:#575757;fill-opacity:1;fill-rule:nonzero;stroke:none;stroke-width:5.625;stroke-miterlimit:4;stroke-dasharray:none;stroke-opacity:1"
       id="path888" />
    <path
       d="m 1525.0768,1603.5109 h 15.295 v -63.71 h -15.295 z m 0,-70.61 h 15.295 v -14.375 h -15.295 z"
       style="font-style:normal;font-variant:normal;font-weight:bold;font-stretch:normal;font-size:115px;line-height:0px;font-family:'URW Gothic';-inkscape-font-specification:'URW Gothic';text-align:center;text-anchor:middle;fill:#575757;fill-opacity:1;fill-rule:nonzero;stroke:none;stroke-width:5.625;stroke-miterlimit:4;stroke-dasharray:none;stroke-opacity:1"
       id="path890" />
    <path
       d="m 1552.7037,1603.5109 h 14.03 v -8.165 c 6.555,7.015 12.65,9.66 22.08,9.66 9.89,0 17.71,-3.68 23.575,-11.155 4.83,-6.21 7.475,-14.145 7.475,-22.655 0,-19.32 -13.685,-33.695 -32.085,-33.695 -8.395,0 -13.8,2.3 -19.78,8.165 v -27.14 h -15.295 z m 32.89,-51.98 c 10.925,0 18.86,8.28 18.86,19.78 0,11.73 -7.59,19.665 -18.515,19.665 -11.155,0 -18.86,-8.165 -18.86,-19.78 0,-11.5 7.705,-19.665 18.515,-19.665 z"
       style="font-style:normal;font-variant:normal;font-weight:bold;font-stretch:normal;font-size:115px;line-height:0px;font-family:'URW Gothic';-inkscape-font-specification:'URW Gothic';text-align:center;text-anchor:middle;fill:#575757;fill-opacity:1;fill-rule:nonzero;stroke:none;stroke-width:5.625;stroke-miterlimit:4;stroke-dasharray:none;stroke-opacity:1"
       id="path892" />
    <path
       d="m 1628.6217,1603.5109 h 15.295 v -35.42 c -0.345,-9.43 4.485,-14.72 13.685,-15.065 v -14.72 h -1.15 c -6.555,0 -9.775,1.84 -13.8,7.705 v -6.21 h -14.03 z"
       style="font-style:normal;font-variant:normal;font-weight:bold;font-stretch:normal;font-size:115px;line-height:0px;font-family:'URW Gothic';-inkscape-font-specification:'URW Gothic';text-align:center;text-anchor:middle;fill:#575757;fill-opacity:1;fill-rule:nonzero;stroke:none;stroke-width:5.625;stroke-miterlimit:4;stroke-dasharray:none;stroke-opacity:1"
       id="path894" />
    <path
       d="m 1728.1757,1539.8009 h -14.03 v 8.51 c -5.29,-7.015 -11.615,-10.005 -20.815,-10.005 -18.86,0 -32.43,14.145 -32.43,33.58 0,19.205 13.455,33.12 32.085,33.12 8.97,0 15.065,-2.76 21.16,-9.775 v 8.28 h 14.03 z m -33.235,12.535 c 10.925,0 18.745,8.165 18.745,19.78 0,4.6 -1.84,9.89 -4.6,13.11 -3.105,3.795 -8.05,5.75 -13.915,5.75 -11.155,0 -18.86,-7.59 -18.86,-18.745 0,-11.615 7.705,-19.895 18.63,-19.895 z"
       style="font-style:normal;font-variant:normal;font-weight:bold;font-stretch:normal;font-size:115px;line-height:0px;font-family:'URW Gothic';-inkscape-font-specification:'URW Gothic';text-align:center;text-anchor:middle;fill:#575757;fill-opacity:1;fill-rule:nonzero;stroke:none;stroke-width:5.625;stroke-miterlimit:4;stroke-dasharray:none;stroke-opacity:1"
       id="path896" />
    <path
       d="m 1739.5787,1603.5109 h 15.295 v -35.42 c -0.345,-9.43 4.485,-14.72 13.685,-15.065 v -14.72 h -1.15 c -6.555,0 -9.775,1.84 -13.8,7.705 v -6.21 h -14.03 z"
       style="font-style:normal;font-variant:normal;font-weight:bold;font-stretch:normal;font-size:115px;line-height:0px;font-family:'URW Gothic';-inkscape-font-specification:'URW Gothic';text-align:center;text-anchor:middle;fill:#575757;fill-opacity:1;fill-rule:nonzero;stroke:none;stroke-width:5.625;stroke-miterlimit:4;stroke-dasharray:none;stroke-opacity:1"
       id="path898" />
    <path
       d="m 1783.8519,1624.7859 h 16.445 l 36.8,-84.985 h -17.71 l -15.295,41.285 -14.145,-41.285 h -17.48 l 23.345,57.73 z"
       style="font-style:normal;font-variant:normal;font-weight:bold;font-stretch:normal;font-size:115px;line-height:0px;font-family:'URW Gothic';-inkscape-font-specification:'URW Gothic';text-align:center;text-anchor:middle;fill:#575757;fill-opacity:1;fill-rule:nonzero;stroke:none;stroke-width:5.625;stroke-miterlimit:4;stroke-dasharray:none;stroke-opacity:1"
       id="path900" />
  </g>
</svg>
